<svg width="326" height="326" viewBox="0 0 326 326" fill="none" xmlns="http://www.w3.org/2000/svg">
<path d="M276.042 146.589C276.042 146.589 299.9 177.704 238.454 218.424C177.006 259.142 91.3402 272.615 74.293 228.766C57.2458 184.915 73.162 197.898 138.66 190.393C204.157 182.888 247.767 114.783 258.305 122.206C268.838 129.631 276.042 146.589 276.042 146.589Z" fill="#F9A332"/>
<path d="M127.191 250.205C108.7 250.205 93.018 245.842 83.0107 236.191C87.4382 234.101 90.9434 231.979 93.8722 230.207C97.2104 228.187 99.9143 226.55 101.594 226.55C101.773 226.55 101.942 226.569 102.098 226.608C102.951 226.823 103.849 227.747 104.844 229.433C107.722 234.309 111.651 236.975 115.948 236.975C116.121 236.975 116.294 236.97 116.468 236.962C121.017 236.742 125.213 233.438 127.692 228.125C129.162 224.974 131.082 223.06 133.56 222.273C134.479 221.982 135.504 221.836 136.63 221.836C140.767 221.836 146.293 223.798 153.113 227.698C153.14 227.713 153.163 227.727 153.189 227.741C156.025 229.426 159.206 230.448 162.964 230.545C163.272 230.554 163.575 230.557 163.874 230.557C174.269 230.557 179.174 225.804 182.138 222.931C182.91 222.183 184.077 221.053 184.47 221.021C184.474 221.021 184.819 221.072 185.601 221.854C182.113 225.941 174.949 233.863 164.004 233.863C159.308 233.863 153.916 232.403 147.822 228.557C145.144 226.868 142.402 226.163 139.925 226.163C132.85 226.163 127.929 231.921 132.819 236.959C134.829 239.03 138.868 239.75 143.511 239.75C151.015 239.75 160.095 237.869 164.723 236.771C174.014 234.502 183.485 231.487 192.897 227.807C194.618 228.573 196.379 228.978 198.042 228.978C199.688 228.978 201.238 228.581 202.56 227.746C203.687 227.034 205.486 225.425 205.948 222.255C217.159 217.099 228.131 211.03 238.453 204.19C262.431 188.299 273.418 173.874 277.902 162.187C277.925 164.027 277.785 166.029 277.413 168.181C276.808 171.687 275.637 175.236 273.918 178.815C267.942 188.818 257.145 200.314 238.453 212.701C203.507 235.859 160.726 250.205 127.191 250.205ZM203.993 212.429C203.884 212.182 203.769 211.933 203.65 211.679C203.263 210.858 202.911 209.994 202.597 209.089C202.652 209.089 202.702 209.089 202.756 209.089C214.706 209.089 219.253 203.179 224.762 196.02C226.709 193.489 228.721 190.873 231.304 188.116C235.962 183.142 243.094 182.839 249.992 182.546C254.529 182.354 258.877 182.169 262.184 180.535C254.146 188.516 243.565 180.528 237.234 190.552C230.033 201.954 223.63 209.955 210.029 211.555C207.818 211.815 205.816 212.103 203.993 212.429ZM267.72 171.381C267.754 170.766 267.754 170.122 267.725 169.449C267.484 164.021 267.455 160.317 268.045 158.627C268.362 157.713 268.775 157.472 270.954 156.523C272.387 155.897 274.223 155.096 276.515 153.666C276.846 154.672 277.151 155.81 277.394 157.073C268.406 159.231 271.91 161.425 267.72 171.381Z" fill="#BF6700"/>
<path d="M256.385 124.349C255.763 124.349 254.22 124.705 250.847 127.073C246.916 129.833 241.803 134.392 235.881 139.667C214.188 158.999 181.404 188.214 138.967 193.076C123.45 194.855 110.748 195.487 100.541 195.995C84.7841 196.781 74.3744 197.298 71.64 201.517C69.0228 205.553 71.8151 214.937 76.8108 227.788C80.916 238.349 89.4476 245.75 102.168 249.789C135.104 260.244 191.791 246.107 236.961 216.173C260.723 200.427 274.711 183.832 277.414 168.181C279.531 155.918 274.122 148.531 273.891 148.224C273.759 148.049 273.641 147.848 273.556 147.647C273.462 147.425 266.5 131.287 256.748 124.415C256.743 124.413 256.645 124.349 256.385 124.349ZM127.239 258.657C117.332 258.658 108.356 257.42 100.534 254.936C86.1784 250.38 76.5033 241.904 71.7766 229.745C65.7288 214.19 63.1942 204.617 67.1076 198.579C71.346 192.041 81.6201 191.529 100.272 190.602C110.402 190.097 123.009 189.469 138.353 187.711C179.09 183.043 211.105 154.513 232.29 135.636C246.457 123.01 254.258 116.055 259.858 120C270.257 127.329 277.362 142.876 278.404 145.252C279.6 146.97 284.993 155.613 282.77 168.892C279.852 186.356 265.441 203.779 239.946 220.675C217.764 235.375 191.756 246.949 166.714 253.266C152.478 256.856 139.183 258.657 127.239 258.657Z" fill="#6D184E"/>
<path d="M63.0091 201.153C63.0091 201.153 47.4072 198.753 46.0068 209.353C44.6069 219.955 61.809 215.755 61.6091 223.956C61.409 232.157 61.209 242.959 78.8121 235.558C96.4142 228.157 101.214 218.778 106.816 228.269C112.416 237.758 121.418 236.158 125.618 227.156C129.819 218.155 138.076 216.463 154.252 225.711C162.906 230.658 167.602 223.609 173.478 216.56C178.581 210.435 184.575 204.31 194.829 206.054C216.882 209.804 217.833 199.153 229.633 186.551C241.435 173.949 266.239 187.751 265.439 169.547C264.639 151.345 266.539 158.198 277.489 150.246C288.442 142.294 288.291 123.692 266.838 125.343C245.385 126.993 192.029 203.953 63.0091 201.153Z" fill="#48C75A"/>
<path d="M265.622 154.319C266.431 150.956 270.296 148.91 278.315 142.67C279.73 141.567 281.147 139.736 282.338 137.897C282.046 141.715 279.768 145.764 276.145 148.395C273.139 150.575 270.914 151.545 269.124 152.325C267.65 152.967 266.503 153.571 265.622 154.319Z" fill="#B6E9BD"/>
<path d="M209.383 203.647C216.447 199.817 219.811 191.712 227.646 182.745C237.519 171.445 255.9 178.667 263.02 172.351C262.81 173.599 262.38 174.571 261.718 175.291C259.642 177.553 254.86 177.757 249.797 177.971C242.345 178.287 233.898 178.647 227.962 184.985C225.23 187.904 223.054 190.732 221.134 193.227C217.227 198.303 214.365 202.026 209.383 203.647Z" fill="#B6E9BD"/>
<path d="M69.1304 235.744C67.8885 235.744 66.8941 235.497 66.1686 235.001C63.6714 233.298 63.7967 228.15 63.8974 224.012C64.0329 218.479 58.7695 216.842 54.9274 215.648C49.8474 214.068 47.8234 213.084 48.2766 209.654C48.5189 207.82 49.3049 206.427 50.6798 205.392C52.4979 204.024 55.1386 203.46 57.5435 203.279C64.3596 213.866 74.7759 219.751 86.9471 219.751C88.4897 219.751 90.0626 219.656 91.6571 219.465C106.736 217.402 121.9 214.184 137.037 209.843C137.626 210.647 138.206 211.445 138.778 212.234C140.314 214.348 141.803 216.4 143.309 218.318C140.875 217.61 138.648 217.259 136.615 217.259C135.017 217.259 133.538 217.476 132.176 217.91C128.461 219.089 125.557 221.874 123.545 226.188C121.796 229.934 119.068 232.252 116.248 232.389C116.168 232.392 116.089 232.393 116.008 232.393C113.368 232.393 110.815 230.54 108.788 227.105C107.117 224.273 105.346 222.703 103.216 222.168C102.677 222.032 102.138 221.969 101.594 221.969C98.6437 221.969 95.5465 223.841 91.5021 226.289C88.0071 228.404 83.6578 231.037 77.9241 233.447C74.2956 234.973 71.326 235.744 69.1304 235.744ZM202.969 204.548C202.465 204.548 201.944 204.535 201.405 204.509C200.353 198.846 200.534 192.157 202.197 185.169C221.875 176.069 240.235 165.388 257.016 153.264C265.162 147.172 269.916 138.925 270.997 129.636C271.135 129.607 271.269 129.58 271.405 129.553C272.578 136.508 271.396 145.585 262.037 154.147C243.235 171.348 222.031 175.949 212.429 185.751C206.644 191.658 206.016 199.231 206.43 204.319C205.372 204.47 204.225 204.548 202.969 204.548Z" fill="#539256"/>
<path d="M59.4627 203.208C56.6614 203.208 53.0002 203.646 50.6792 205.392C49.3045 206.427 48.5183 207.821 48.2759 209.655C47.823 213.084 49.8467 214.068 54.9269 215.648C58.7688 216.842 64.0323 218.48 63.8967 224.012C63.7962 228.15 63.6706 233.299 66.168 235.002C68.1782 236.373 72.2429 235.836 77.9233 233.448C83.657 231.038 88.0062 228.405 91.5014 226.289C96.2904 223.391 99.7527 221.298 103.215 222.168C105.345 222.704 107.116 224.273 108.787 227.105C110.875 230.643 113.522 232.504 116.247 232.389C119.068 232.252 121.796 229.935 123.544 226.189C125.556 221.874 128.46 219.089 132.175 217.91C137.816 216.116 145.409 218.02 155.387 223.724C161.4 227.162 164.648 223.703 170.34 216.767C175.855 210.042 182.718 201.672 195.212 203.797C210.942 206.475 214.561 201.768 221.133 193.228C223.053 190.733 225.229 187.904 227.962 184.987C233.897 178.648 242.345 178.288 249.797 177.972C254.859 177.757 259.641 177.554 261.716 175.291C262.796 174.114 263.267 172.268 263.15 169.649C262.587 156.825 263.256 154.882 269.125 152.326C270.913 151.545 273.141 150.574 276.145 148.394C281.104 144.792 283.543 138.539 281.817 133.848C280.12 129.23 274.864 127.018 267.013 127.626C261.757 128.029 253.16 134.398 242.274 142.463C226.801 153.926 205.608 169.628 176.409 182.275C141.942 197.205 103.765 204.33 62.9589 203.442C62.8605 203.44 62.7622 203.43 62.6638 203.417C61.9598 203.31 60.8107 203.208 59.4627 203.208ZM69.1071 240.311C66.9115 240.311 65.0799 239.802 63.5882 238.784C59.0333 235.677 59.1924 229.148 59.3203 223.9C59.3632 222.125 57.9212 221.374 53.5664 220.02C49.2527 218.679 42.7337 216.65 43.7373 209.055C44.1436 205.978 45.5581 203.511 47.9405 201.724C53.2974 197.707 61.8718 198.687 63.1961 198.868C155.79 200.834 208.216 161.995 239.55 138.785C251.92 129.621 260.092 123.567 266.661 123.06C280.765 121.979 284.964 129.14 286.116 132.267C288.562 138.919 285.499 147.259 278.835 152.097C275.425 154.573 272.841 155.699 270.953 156.523C268.775 157.472 268.363 157.713 268.044 158.628C267.455 160.317 267.485 164.02 267.725 169.449C267.895 173.344 267.035 176.268 265.091 178.386C261.733 182.048 256.028 182.29 249.991 182.546C243.094 182.839 235.961 183.141 231.305 188.116C228.721 190.873 226.709 193.489 224.761 196.02C218.129 204.64 212.89 211.448 194.442 208.311C184.571 206.632 179.136 213.259 173.877 219.67C168.671 226.02 162.765 233.216 153.113 227.698C144.433 222.736 137.854 220.912 133.56 222.273C131.082 223.06 129.162 224.974 127.692 228.124C125.213 233.438 121.017 236.742 116.468 236.962C111.968 237.186 107.838 234.505 104.843 229.433C103.849 227.747 102.951 226.823 102.097 226.608C100.486 226.205 97.5672 227.97 93.8721 230.207C90.2493 232.399 85.7407 235.128 79.6986 237.668C75.5029 239.432 71.9921 240.311 69.1071 240.311Z" fill="#6D184E"/>
<path d="M230.069 87.5341C227.287 88.6469 224.896 90.4026 222.933 92.6509C210.987 100.875 184.964 117.435 151.947 130.484C119.05 143.818 88.7877 149.788 74.4662 152.078C71.4942 151.808 68.5527 152.187 65.7708 153.3C53.0809 158.379 48.5187 176.802 55.5816 194.445C62.6441 212.089 76.672 218.957 91.3471 217.196C124.003 212.731 153.19 203.328 177.061 193.219C201.314 184.065 228.929 170.731 255.644 151.431C267.483 142.58 272.897 127.93 265.835 110.284C258.772 92.6406 242.759 82.4565 230.069 87.5341Z" fill="#DB2839"/>
<path d="M86.8546 215.182C73.7557 215.182 63.2705 207.495 57.7063 193.595C57.2825 192.536 56.9007 191.471 56.5605 190.402C57.4328 190.1 58.3279 189.801 59.2397 189.512C58.5933 192.464 58.4838 195.498 60.1324 198.004C61.7732 200.498 64.7382 201.914 69.1962 202.334C69.8493 202.395 70.4867 202.424 71.1092 202.424C80.3628 202.424 86.3179 195.938 90.7407 191.121C93.4494 188.171 96.0076 185.385 98.106 185.385C98.1219 185.385 98.1377 185.385 98.1524 185.385C99.3784 185.409 100.83 186.401 102.469 188.332C108.275 195.181 115.869 198.905 123.964 198.904C124.328 198.904 124.694 198.897 125.06 198.881C126.038 198.841 127.007 198.745 127.963 198.596C130.207 201.019 132.223 203.483 134.099 205.919C119.735 209.959 105.357 212.97 91.074 214.924C89.64 215.096 88.2332 215.182 86.8546 215.182ZM97.3749 191.041C97.019 191.041 96.7049 191.23 96.4134 191.653C95.2573 193.328 92.7882 195.671 90.1892 197.92C88.4785 199.4 88.9891 202.141 91.0944 202.968C94.8584 204.448 98.871 205.162 102.988 205.162C104.446 205.162 105.919 205.073 107.397 204.895C107.442 204.888 107.487 204.883 107.532 204.876C110.389 204.484 111.058 200.659 108.519 199.294C102.047 195.815 99.1727 191.041 97.3749 191.041ZM203.929 179.298C206.676 171.527 211.28 163.643 218.074 156.603C219.118 156.69 220.178 156.743 221.243 156.743C222.17 156.743 223.099 156.702 224.018 156.609C221.635 159.344 219.554 162.007 217.803 164.407C216.282 166.491 217.94 169.125 220.154 169.125C220.572 169.125 221.013 169.03 221.455 168.818C227.794 165.786 234.234 162.469 240.72 158.843C229.107 166.324 216.815 173.157 203.929 179.298ZM238.886 142.841C239.021 142.366 239.138 141.899 239.239 141.445C250.067 135.767 259.096 132.595 266.265 130.739C266.168 131.304 266.055 131.864 265.926 132.419C255.717 133.038 246.606 137.274 238.886 142.841Z" fill="#A92142"/>
<path d="M72.6367 154.283C70.5361 154.283 68.5191 154.664 66.6216 155.425C61.1864 157.601 57.2337 162.675 55.4912 169.711C53.6808 177.022 54.4674 185.502 57.7071 193.594C63.8565 208.957 76.0165 216.729 91.0749 214.923C119.352 211.056 147.994 203.042 176.169 191.112C176.196 191.099 176.223 191.088 176.252 191.078C204.879 180.273 231.139 166.308 254.305 149.576C266.419 140.517 269.858 126.497 263.708 111.135C257.128 94.6911 242.416 85.0556 230.919 89.6609L230.07 87.5344L230.919 89.6609C228.538 90.6122 226.432 92.1252 224.656 94.1564C224.53 94.2994 224.389 94.4258 224.231 94.5357C211.698 103.164 185.751 119.585 152.79 132.612C119.962 145.92 89.8523 151.937 74.8279 154.339C74.6391 154.368 74.4469 154.374 74.2583 154.358C73.7124 154.308 73.1723 154.283 72.6367 154.283ZM86.9471 219.75C71.9948 219.752 59.6904 210.869 53.4561 195.296C49.8639 186.32 49.0081 176.843 51.0469 168.611C53.1531 160.105 58.0799 153.912 64.92 151.174C67.8906 149.984 71.0727 149.516 74.3802 149.773C89.3032 147.373 118.862 141.424 151.089 128.361C183.444 115.575 208.946 99.483 221.404 90.9231C223.62 88.4526 226.248 86.5997 229.218 85.4079C243.059 79.8699 260.44 90.6454 267.959 109.434C274.836 126.614 270.745 142.998 257.016 153.265C233.506 170.248 206.902 184.399 177.91 195.345C149.379 207.424 120.359 215.54 91.6569 219.464C90.0624 219.656 88.4895 219.75 86.9471 219.75Z" fill="#6D184E"/>
<path d="M59.8089 172.549C59.8089 172.549 44.4066 178.75 40.6063 189.352C38.3485 195.649 44.843 192.136 54.7228 188.623C61.4757 186.222 69.8093 183.82 78.0109 184.551C85.4995 185.218 88.3708 182.973 90.4556 180.728C93.9948 176.915 95.2659 173.101 113.016 183.55C141.221 200.153 143.821 227.757 163.023 228.256C170.714 228.458 175.131 225.978 178.129 223.5C182.613 219.789 183.91 216.08 188.226 221.357C195.428 230.157 209.079 228.557 201.578 212.655C194.077 196.752 198.828 161.747 232.834 142.345C266.837 122.942 285.04 127.142 286.641 124.343C288.242 121.542 280.639 107.139 256.436 106.74C232.233 106.339 171.425 168.149 59.8089 172.549Z" fill="#FCAF15"/>
<path d="M163.834 225.978C163.587 225.978 163.338 225.975 163.083 225.968C154.242 225.737 149.31 218.946 142.483 209.544C139.715 205.731 136.653 201.514 132.935 197.289C137.727 195.494 141.955 192.261 145.083 187.882C148.042 183.74 150.604 182.157 153.77 182.157C156.839 182.157 160.473 183.646 165.58 185.739C168.808 187.059 172.465 188.557 176.723 189.93C179.496 190.822 182.217 191.262 184.815 191.262C189.435 191.262 193.668 189.872 197.115 187.168C196.646 188.049 196.229 188.936 195.859 189.823C191.716 192.041 187.643 192.866 183.726 192.866C178.08 192.866 172.761 191.152 168.039 189.439C163.316 187.725 159.19 186.012 155.926 186.012C154.109 186.012 152.559 186.543 151.323 187.901C146.91 192.745 142.557 197.583 139.897 199.074C147.797 209.828 152.622 218.872 163.502 219.155C163.768 219.161 164.028 219.166 164.286 219.166C171.629 219.166 175.793 216.402 178.6 213.64C181.405 210.877 182.854 208.115 184.766 208.115C185.726 208.115 186.803 208.811 188.227 210.551C190.795 213.69 194.182 215.502 197.139 215.815C198.449 219.742 198.228 222.544 197.097 224.318C194.863 223.984 192.137 222.52 189.999 219.907C188.739 218.366 187.001 216.58 184.733 216.45C184.647 216.446 184.559 216.442 184.472 216.442C182.263 216.442 180.653 217.995 178.954 219.642C176.176 222.335 172.397 225.978 163.834 225.978ZM42.6553 190.434C42.6861 190.339 42.721 190.235 42.7613 190.123C44.1475 186.257 47.3496 182.987 50.6686 180.465C52.7501 180.422 54.9061 180.258 57.0407 180.096C58.3616 179.997 59.6092 179.901 60.833 179.835C60.9538 179.828 61.0624 179.825 61.1596 179.825C61.4736 179.825 61.6725 179.856 61.7856 179.883C61.8974 180.666 61.277 182.691 60.7663 184.278C56.5728 185.445 52.697 186.905 49.3589 188.163C47.017 189.045 44.2277 190.095 42.6553 190.434Z" fill="#D18126"/>
<path d="M78.29 184.571C90.5467 185.558 90.1819 178.601 94.7849 177.076C86.071 175.122 88.3948 183.571 78.29 184.571Z" fill="#F8CE36"/>
<path d="M40.376 192.258C42.322 195.265 57.1263 185.357 72.7853 184.48C59.975 183.702 47.0056 190.257 40.376 192.258Z" fill="#F8CE36"/>
<path d="M198.041 215.866C197.746 215.866 197.443 215.849 197.137 215.817C196.809 214.833 196.384 213.78 195.852 212.654C193.231 207.096 192.284 198.413 195.859 189.824C196.167 189.657 196.477 189.485 196.786 189.304C195.515 198.351 196.423 207.089 199.508 213.631C199.81 214.271 200.078 214.893 200.309 215.494C199.619 215.743 198.852 215.866 198.041 215.866Z" fill="#FED78A"/>
<path d="M198.051 224.391C197.746 224.391 197.426 224.367 197.096 224.318C198.225 222.545 198.448 219.742 197.136 215.817C197.442 215.849 197.744 215.867 198.04 215.867C198.851 215.867 199.618 215.744 200.309 215.493C201.913 219.634 201.868 222.768 200.116 223.876C199.569 224.219 198.861 224.391 198.051 224.391ZM195.857 189.823C196.226 188.937 196.644 188.05 197.112 187.169C197.117 187.164 197.122 187.161 197.127 187.157C197 187.874 196.886 188.589 196.785 189.304C196.477 189.485 196.166 189.659 195.857 189.823Z" fill="#E8C093"/>
<path d="M204.996 166.087C204.77 163.924 204.312 161.707 203.614 159.467C202.592 156.184 203.185 155.447 203.212 155.417C203.479 155.109 204.19 154.993 205.132 154.993C206.931 154.993 209.569 155.417 211.544 155.735C211.828 155.78 212.117 155.826 212.412 155.873C209.405 159.29 206.97 162.743 204.996 166.087Z" fill="#D18126"/>
<path d="M96.6467 174.509C100.208 174.509 105.421 176.423 114.178 181.578C128.148 189.801 136.096 200.749 142.483 209.545C149.309 218.946 154.241 225.738 163.082 225.969C172.179 226.187 176.096 222.413 178.953 219.642C180.718 217.932 182.389 216.321 184.734 216.45C187 216.581 188.739 218.367 189.999 219.907C193.292 223.931 197.974 225.228 200.116 223.876C202.122 222.606 201.891 218.682 199.507 213.632C195.149 204.39 195.136 190.764 199.475 178.072C203.22 167.118 211.852 151.68 231.698 140.355C256.19 126.383 272.782 124.43 280.755 123.493C282.134 123.33 283.658 123.151 284.496 122.96C284.325 122.178 283.721 120.613 281.991 118.609C279.582 115.816 272.264 109.291 256.397 109.029C249.034 108.886 237.391 115.359 221.263 124.291C187.107 143.2 135.529 171.758 60.3185 174.82C58.0945 175.789 45.8674 181.459 42.7609 190.124C42.7206 190.235 42.6856 190.339 42.655 190.434C44.2272 190.096 47.0165 189.045 49.3588 188.163C57.0256 185.275 67.5301 181.323 78.2143 182.27C85.47 182.92 87.4192 180.717 89.4815 178.388C91.4578 176.156 93.3437 174.509 96.6467 174.509ZM163.875 230.557C163.576 230.557 163.271 230.554 162.963 230.545C151.863 230.256 145.799 221.905 138.778 212.234C132.321 203.342 125.003 193.264 111.855 185.523C104.704 181.314 99.8379 179.205 96.9812 179.079C95.1348 179.009 94.4387 179.695 92.9088 181.423C90.5709 184.064 87.3661 187.678 77.8086 186.831C68.1616 185.97 58.2268 189.714 50.9723 192.447C44.5803 194.855 41.0584 196.183 38.9121 194.07C37.1163 192.303 38.1208 189.5 38.4512 188.579C42.5513 177.142 58.2867 170.695 58.9533 170.426C59.1975 170.329 59.4562 170.272 59.7184 170.262C134.068 167.33 185.206 139.019 219.044 120.284C235.796 111.012 247.9 104.316 256.473 104.452C273.643 104.736 283.829 111.982 287.635 118.669C288.544 120.269 289.885 123.28 288.629 125.478C287.588 127.299 285.483 127.545 281.29 128.039C273.615 128.942 257.649 130.821 233.969 144.334C202.469 162.306 196.048 195.561 203.649 211.678C208.693 222.374 204.569 226.478 202.56 227.746C198.102 230.563 191.027 228.393 186.455 222.805C185.065 221.108 184.476 221.022 184.47 221.021C184.078 221.053 182.911 222.183 182.14 222.931C179.174 225.803 174.271 230.557 163.875 230.557Z" fill="#6D184E"/>
<path d="M180.802 202.079C180.802 202.079 173.821 215.061 163.502 213.479C155.673 212.278 168.755 213.806 172.153 204.329C176.077 193.376 182.822 199.078 180.802 202.079Z" fill="#F8CE36"/>
<path d="M69.41 149.045C69.41 149.045 41.8059 150.546 38.5055 165.848C35.2052 181.15 49.6071 178.15 60.709 177.55C71.8102 176.95 50.2068 198.253 69.41 200.053C77.4377 200.806 82.7903 196.21 87.1577 191.614C93.2371 185.217 97.4047 178.82 104.215 186.851C115.916 200.653 134.219 199.154 143.22 186.552C152.222 173.95 159.722 182.051 177.425 187.752C195.128 193.453 207.13 178.45 201.429 160.147C198.598 151.061 204.716 152.328 212.659 153.594C220.717 154.879 230.652 156.163 235.032 146.646C243.733 127.743 225.131 124.443 247.335 119.943C269.538 115.44 279.139 113.942 275.539 101.791C271.939 89.6373 263.537 80.6367 235.332 92.6388C207.13 104.639 181.625 157.148 69.41 149.045Z" fill="#48C75A"/>
<path d="M64.9771 186.137C66.167 182.468 67.1782 179.301 65.429 177.028C64.5206 175.846 63.0774 175.249 61.1351 175.249C60.9566 175.249 60.7734 175.253 60.5858 175.263C59.3124 175.332 57.9822 175.433 56.6952 175.531C54.3753 175.707 51.9357 175.892 49.6746 175.892C49.4137 175.892 49.1546 175.89 48.8989 175.886C50.443 170.366 53.3144 164.98 48.1837 164.98C48.0421 164.98 47.8942 164.982 47.7401 164.992C45.5563 165.109 43.2456 165.319 40.9668 165.466C42.1476 161.525 45.351 158.672 49.2078 156.605C49.649 158.856 50.1605 161.08 50.7402 163.278C59.9067 167.918 69.7909 171.075 80.1983 172.842C76.0353 176.416 71.6994 183.185 64.9771 186.137ZM111.03 184.056C108.444 184.056 105.823 183.626 103.26 182.742C101.892 181.694 100.519 181.078 99.1188 180.876C96.3097 179.299 93.6396 177.115 91.2461 174.292C91.2135 174.254 91.1806 174.216 91.1478 174.177C94.4147 174.425 97.7244 174.55 101.068 174.55C111.279 174.55 121.823 173.404 132.551 171.184C131.792 171.975 131.027 172.908 130.252 173.994C125.598 180.51 118.459 184.056 111.03 184.056ZM171.844 176.42C169.529 176.42 167.055 176.029 164.458 175.193C156.31 172.57 150.322 169.437 145.356 168.049C153.405 165.78 161.514 162.935 169.625 159.547C169.658 159.532 169.692 159.518 169.726 159.504C169.734 159.5 169.744 159.496 169.754 159.492C169.781 159.482 169.801 159.474 169.827 159.462C169.837 159.458 169.847 159.454 169.859 159.45C169.883 159.44 169.909 159.428 169.934 159.418C169.942 159.414 169.95 159.412 169.958 159.408C169.99 159.393 170.024 159.379 170.057 159.367L170.059 159.365C170.095 159.351 170.131 159.335 170.165 159.321C170.167 159.319 170.169 159.319 170.171 159.319C170.204 159.305 170.234 159.291 170.268 159.277C170.272 159.275 170.28 159.273 170.286 159.269C170.314 159.256 170.345 159.244 170.375 159.232C170.379 159.23 170.385 159.228 170.389 159.226C170.421 159.212 170.455 159.198 170.49 159.184L170.492 159.182C170.564 159.152 170.633 159.121 170.705 159.091C170.707 159.091 170.711 159.089 170.713 159.089C170.746 159.075 170.778 159.061 170.81 159.047C170.814 159.045 170.816 159.045 170.82 159.043C170.963 158.982 171.104 158.924 171.245 158.862L171.249 158.86C171.572 158.723 171.892 158.586 172.212 158.447L172.218 158.445C172.359 158.384 172.5 158.322 172.643 158.261L172.647 158.257C172.789 158.197 172.928 158.136 173.071 158.076C173.075 158.072 173.075 158.072 173.079 158.07C173.22 158.007 173.357 157.949 173.498 157.886C173.502 157.884 173.504 157.884 173.508 157.882C173.538 157.868 173.572 157.854 173.602 157.84C173.609 157.838 173.609 157.838 173.613 157.836C173.715 157.792 173.822 157.743 173.925 157.699C173.929 157.697 173.933 157.695 173.937 157.691C173.967 157.679 173.997 157.667 174.026 157.653C174.03 157.651 174.038 157.649 174.042 157.645C174.078 157.631 174.106 157.616 174.14 157.602H174.142C174.211 157.57 174.281 157.54 174.35 157.51C174.356 157.506 174.362 157.504 174.368 157.502C174.394 157.49 174.424 157.475 174.451 157.465C174.459 157.461 174.465 157.459 174.471 157.455C174.497 157.443 174.529 157.431 174.555 157.419C174.561 157.415 174.568 157.413 174.576 157.409C174.642 157.381 174.707 157.351 174.773 157.32C174.781 157.316 174.793 157.31 174.803 157.308C174.825 157.298 174.85 157.286 174.874 157.276C174.884 157.27 174.894 157.268 174.904 157.262C174.928 157.252 174.948 157.242 174.972 157.232C174.985 157.226 174.995 157.222 175.005 157.218C175.031 157.205 175.059 157.193 175.085 157.181C175.089 157.179 175.097 157.175 175.103 157.173C175.136 157.159 175.17 157.143 175.202 157.129C175.21 157.125 175.218 157.121 175.226 157.119C175.248 157.107 175.275 157.097 175.299 157.087C175.309 157.081 175.323 157.075 175.335 157.068C175.355 157.06 175.373 157.05 175.394 157.042C175.41 157.036 175.422 157.03 175.438 157.022C175.456 157.014 175.472 157.008 175.49 157C175.504 156.992 175.52 156.986 175.535 156.98C175.551 156.972 175.567 156.964 175.583 156.958C175.613 156.944 175.647 156.927 175.678 156.915C175.69 156.909 175.706 156.901 175.718 156.895C175.738 156.887 175.754 156.879 175.774 156.871C175.786 156.865 175.798 156.859 175.811 156.853C175.831 156.845 175.851 156.835 175.869 156.827C175.881 156.823 175.893 156.817 175.903 156.813C175.925 156.801 175.946 156.792 175.968 156.782C175.97 156.782 175.972 156.78 175.974 156.78C176.054 156.742 176.137 156.706 176.22 156.668C176.222 156.668 176.226 156.666 176.23 156.664C176.256 156.651 176.284 156.639 176.31 156.627L176.312 156.625C180.72 154.615 185.01 152.483 189.168 150.237C192.394 164.67 184.534 176.42 171.844 176.42ZM208.392 141.922C206.813 141.922 205.209 141.793 203.63 141.604C211.191 136.621 218.18 131.212 224.498 125.409C224.293 127.873 223.61 130.734 222.066 134.087C219.195 140.322 213.941 141.922 208.392 141.922ZM242.123 105.806C245.558 101.084 248.598 96.1799 251.205 91.1109C251.036 90.7462 250.865 90.3815 250.693 90.0189C253.159 89.5253 255.424 89.2775 257.483 89.2775C259.431 89.2775 261.196 89.4991 262.77 89.9444C265.399 99.9736 258.39 102.417 242.123 105.806Z" fill="#539256"/>
<path d="M123.966 194.327C123.893 194.327 123.819 194.325 123.744 194.325C127.802 192.545 131.437 189.652 134.228 185.744C137.933 180.557 141.4 178.684 145.353 178.684C146.216 178.684 147.106 178.773 148.025 178.939C145.784 180.104 143.586 182.103 141.356 185.221C137.427 190.724 131.417 194.035 124.869 194.307C124.568 194.32 124.267 194.327 123.966 194.327Z" fill="#A4E3AD"/>
<path d="M186.222 186.649C195.139 182.536 198.564 171.282 195.91 157.764C194.858 152.405 197.191 151.071 201.154 151.071C201.299 151.071 201.444 151.071 201.59 151.075C200.887 151.383 200.271 151.822 199.752 152.419C197.689 154.798 198.473 158.358 199.243 160.828C201.882 169.298 200.469 177.58 195.557 182.445C193.025 184.953 189.837 186.368 186.222 186.649ZM221.415 152.161C220.918 152.161 220.409 152.148 219.892 152.124C224.604 151.424 228.894 149.166 231.521 143.457C240.742 123.426 221.03 119.928 244.559 115.158C260.713 111.884 270.567 110.107 273.925 105.145C274.16 107.203 273.712 108.305 273.292 109C270.992 112.827 262.258 114.591 249.041 117.262L246.879 117.698C239.34 119.227 235.974 120.689 234.467 123.093C233.077 125.304 233.67 127.629 234.295 130.092C235.222 133.731 236.374 138.259 232.955 145.689C230.656 150.68 226.615 152.161 221.415 152.161Z" fill="#A4E3AD"/>
<path d="M61.134 175.25C63.0766 175.25 64.5196 175.846 65.4281 177.029C67.1896 179.318 66.1524 182.514 64.9512 186.216C63.8529 189.599 62.6077 193.436 63.958 195.489C64.775 196.73 66.6802 197.498 69.6238 197.774C77.7179 198.531 82.8458 192.95 87.3692 188.023C90.8157 184.269 94.0612 180.703 98.2443 180.807C100.877 180.859 103.402 182.352 105.961 185.371C111.096 191.427 117.811 194.603 124.869 194.307C131.418 194.035 137.427 190.724 141.357 185.222C149.29 174.117 156.85 177.216 167.315 181.502C170.466 182.792 174.035 184.255 178.128 185.573C185.073 187.808 191.262 186.699 195.557 182.445C200.468 177.581 201.88 169.297 199.243 160.828C198.473 158.358 197.689 154.8 199.753 152.419C202.199 149.597 206.865 150.346 212.27 151.214C221.839 152.75 229.441 153.321 232.953 145.688C236.375 138.259 235.221 133.729 234.295 130.091C233.668 127.63 233.076 125.303 234.465 123.092C235.974 120.69 239.339 119.227 246.88 117.698L249.041 117.261C262.258 114.591 270.991 112.828 273.292 109.001C273.867 108.047 274.496 106.331 273.345 102.441C271.53 96.3165 268.842 92.5945 264.883 90.7293C258.83 87.8781 249.188 89.2292 236.23 94.745C229.548 97.5879 222.802 102.98 214.993 109.226C202.801 118.969 187.63 131.1 164.869 139.958C138.255 150.316 107.024 154.038 69.4012 151.34C67.3841 151.481 43.5273 153.424 40.7432 166.331C39.9902 169.824 40.2306 172.308 41.4586 173.716C43.8882 176.504 50.6918 175.988 56.6943 175.533C57.9815 175.434 59.3114 175.334 60.5849 175.264C60.7725 175.254 60.9555 175.25 61.134 175.25ZM71.1097 202.424C70.4872 202.424 69.8498 202.394 69.1966 202.333C64.7387 201.914 61.7737 200.498 60.1328 198.004C57.5747 194.115 59.2493 188.952 60.5963 184.803C61.125 183.172 61.9092 180.755 61.785 179.884C61.6359 179.849 61.3432 179.807 60.8323 179.836C59.6085 179.902 58.361 179.997 57.0401 180.097C49.6201 180.659 41.9456 181.242 38.0079 176.725C35.7477 174.134 35.1785 170.416 36.268 165.366C39.8949 148.55 68.088 146.825 69.2858 146.76C69.3819 146.756 69.479 146.756 69.5751 146.764C153.161 152.794 187.244 125.545 212.134 105.649C220.205 99.195 227.177 93.6205 234.438 90.5321C248.85 84.3995 259.447 83.1092 266.834 86.5878C272.058 89.0509 275.522 93.6729 277.734 101.14C278.984 105.361 278.814 108.703 277.215 111.362C273.873 116.915 264.868 118.734 249.947 121.749L247.79 122.186C242.201 123.318 239.025 124.443 238.343 125.528C238.013 126.05 238.278 127.173 238.733 128.962C239.719 132.839 241.211 138.699 237.113 147.604C231.866 158.998 219.636 157.034 211.544 155.734C208.535 155.253 203.989 154.519 203.213 155.417C203.185 155.446 202.592 156.185 203.613 159.466C206.811 169.728 205.002 179.534 198.777 185.699C193.291 191.135 185.251 192.676 176.723 189.93C172.464 188.559 168.807 187.06 165.58 185.739C155.203 181.487 150.908 179.728 145.083 187.882C140.327 194.542 133.028 198.55 125.06 198.881C116.556 199.233 108.536 195.488 102.469 188.331C100.831 186.4 99.3789 185.409 98.1528 185.385C98.1381 185.385 98.1224 185.385 98.1064 185.385C96.0082 185.385 93.4498 188.171 90.7412 191.12C86.3183 195.938 80.3634 202.424 71.1097 202.424Z" fill="#6D184E"/>
<path d="M169.626 159.547C206.644 144.077 236.156 120.388 251.203 91.1105C234.482 54.9581 198.166 29.7237 155.877 29.0417C97.1261 28.0963 48.248 75.2927 47.2236 134.043C47.0473 144.166 48.2846 153.968 50.7396 163.278C84.0384 180.134 126.836 177.426 169.626 159.547Z" fill="#F9A332"/>
<path d="M170.439 30.265H170.437H170.439ZM170.329 30.2496C170.326 30.2496 170.326 30.2474 170.324 30.2474C170.326 30.2474 170.326 30.2496 170.329 30.2496ZM170.271 30.2407C170.269 30.2407 170.271 30.2407 170.269 30.2385L170.271 30.2407ZM170.218 30.2319C170.216 30.2319 170.214 30.2319 170.209 30.2297C170.214 30.2319 170.216 30.2319 170.218 30.2319ZM170.158 30.223H170.156H170.158ZM169.991 30.1988C169.988 30.1966 169.988 30.1966 169.986 30.1966C169.988 30.1966 169.988 30.1966 169.991 30.1988ZM169.715 30.1568C169.712 30.1568 169.71 30.1568 169.708 30.1568C169.71 30.1568 169.712 30.1568 169.715 30.1568ZM169.666 30.1502C169.659 30.1502 169.655 30.148 169.651 30.148C169.655 30.148 169.659 30.1502 169.666 30.1502ZM169.611 30.1414C169.604 30.1414 169.598 30.1391 169.593 30.1391C169.6 30.1413 169.602 30.1414 169.611 30.1414ZM169.56 30.1347C169.549 30.1325 169.542 30.1325 169.531 30.1303C169.54 30.1325 169.551 30.1325 169.56 30.1347ZM169.505 30.1259C169.494 30.1259 169.485 30.1237 169.474 30.1215C169.485 30.1237 169.492 30.1237 169.505 30.1259ZM169.445 30.117C169.434 30.117 169.427 30.1148 169.416 30.1148C169.425 30.1148 169.434 30.117 169.445 30.117ZM169.386 30.1104C169.374 30.1082 169.37 30.1082 169.359 30.106C169.368 30.106 169.374 30.1082 169.386 30.1104ZM169.33 30.1016C169.319 30.0994 169.308 30.0994 169.297 30.0972C169.308 30.0994 169.317 30.0994 169.33 30.1016ZM169.271 30.0928C169.262 30.0928 169.251 30.0905 169.24 30.0883C169.253 30.0905 169.26 30.0928 169.271 30.0928ZM169.213 30.0839C169.204 30.0839 169.193 30.0817 169.185 30.0817C169.193 30.0817 169.204 30.0839 169.213 30.0839ZM169.154 30.0773C169.143 30.0751 169.136 30.0751 169.127 30.0729C169.136 30.0751 169.145 30.0751 169.154 30.0773ZM169.096 30.0685C169.085 30.0662 169.072 30.0663 169.061 30.0641C169.074 30.0663 169.083 30.0662 169.096 30.0685ZM169.039 30.0618C169.023 30.0574 169.01 30.0574 168.992 30.053C169.01 30.0574 169.023 30.0574 169.039 30.0618ZM168.981 30.053C168.962 30.0508 168.946 30.0486 168.926 30.0442C168.944 30.0464 168.964 30.0508 168.981 30.053ZM168.913 30.0442C168.895 30.0398 168.882 30.0397 168.864 30.0353C168.88 30.0375 168.897 30.042 168.913 30.0442ZM168.849 30.0353C168.836 30.0331 168.822 30.0309 168.805 30.0287C168.822 30.0309 168.833 30.0331 168.849 30.0353ZM168.787 30.0265C168.776 30.0243 168.761 30.0221 168.747 30.0199C168.763 30.0221 168.774 30.0243 168.787 30.0265ZM168.725 30.0177C168.712 30.0155 168.703 30.0132 168.69 30.0132C168.701 30.0132 168.714 30.0155 168.725 30.0177ZM168.668 30.0088C168.655 30.0066 168.643 30.0066 168.63 30.0044C168.643 30.0066 168.655 30.0066 168.668 30.0088ZM168.61 30.0022C168.597 30 168.582 29.9978 168.571 29.9956C168.582 29.9978 168.599 30 168.61 30.0022ZM168.555 29.9934C168.54 29.9912 168.526 29.9912 168.511 29.989C168.526 29.9912 168.54 29.9912 168.555 29.9934ZM168.493 29.9868C168.48 29.9846 168.467 29.9823 168.451 29.9801C168.467 29.9823 168.48 29.9846 168.493 29.9868ZM168.436 29.9779C168.42 29.9757 168.407 29.9735 168.394 29.9713C168.407 29.9735 168.42 29.9757 168.436 29.9779ZM168.376 29.9691C168.361 29.9691 168.345 29.9669 168.332 29.9647C168.345 29.9669 168.363 29.9691 168.376 29.9691ZM168.319 29.9625C168.303 29.9602 168.29 29.958 168.27 29.9558C168.288 29.958 168.303 29.9602 168.319 29.9625ZM168.259 29.9536C168.239 29.9514 168.224 29.9492 168.204 29.947C168.222 29.9492 168.242 29.9514 168.259 29.9536ZM168.204 29.947C168.184 29.9448 168.164 29.9426 168.144 29.9404C168.164 29.9426 168.182 29.9448 168.204 29.947ZM168.144 29.9404C168.023 29.9227 167.906 29.9073 167.784 29.894C167.904 29.9073 168.023 29.9227 168.144 29.9404ZM167.78 29.8918C167.76 29.8896 167.745 29.8874 167.725 29.8852C167.74 29.8874 167.762 29.8896 167.78 29.8918ZM167.72 29.8852C167.7 29.883 167.683 29.8808 167.663 29.8785C167.683 29.8808 167.703 29.883 167.72 29.8852ZM167.663 29.8763C167.621 29.8719 167.583 29.8675 167.544 29.8631C167.583 29.8675 167.621 29.8719 167.663 29.8763ZM167.539 29.8631C167.522 29.8587 167.504 29.8565 167.482 29.8543C167.504 29.8565 167.519 29.8587 167.539 29.8631ZM167.482 29.8543C167.462 29.852 167.444 29.8498 167.424 29.8476C167.442 29.8498 167.464 29.852 167.482 29.8543ZM167.422 29.8476C164.152 29.4413 160.839 29.1829 157.487 29.0791C160.839 29.1829 164.154 29.4413 167.422 29.8476ZM157.484 29.0791C157.464 29.0791 157.445 29.0791 157.424 29.0791C157.444 29.0791 157.465 29.0791 157.484 29.0791ZM157.422 29.0791C157.402 29.0769 157.384 29.0769 157.363 29.0769C157.383 29.0769 157.403 29.0769 157.422 29.0791ZM157.361 29.0769C157.341 29.0747 157.324 29.0747 157.304 29.0747C157.32 29.0747 157.344 29.0747 157.361 29.0769ZM157.297 29.0747C157.281 29.0747 157.259 29.0725 157.244 29.0725C157.26 29.0725 157.28 29.0747 157.297 29.0747ZM157.235 29.0725C157.219 29.0725 157.197 29.0725 157.182 29.0703C157.198 29.0725 157.218 29.0725 157.235 29.0725ZM157.173 29.0703C157.153 29.0703 157.139 29.0703 157.118 29.0703C157.137 29.0703 157.154 29.0703 157.173 29.0703ZM157.114 29.0703C157.095 29.0681 157.075 29.068 157.057 29.068C157.074 29.068 157.097 29.0681 157.114 29.0703ZM157.052 29.068C156.928 29.0636 156.807 29.0614 156.684 29.0592C156.807 29.0614 156.928 29.0636 157.052 29.068ZM156.676 29.057C156.658 29.057 156.639 29.057 156.621 29.057C156.641 29.057 156.657 29.057 156.676 29.057ZM156.618 29.057C156.596 29.057 156.582 29.0548 156.562 29.0548C156.581 29.0548 156.598 29.057 156.618 29.057ZM156.55 29.0548C156.534 29.0548 156.517 29.0548 156.501 29.0548C156.518 29.0548 156.533 29.0548 156.55 29.0548ZM156.487 29.0548C156.472 29.0526 156.457 29.0526 156.441 29.0526C156.456 29.0526 156.473 29.0526 156.487 29.0548ZM156.425 29.0526C156.411 29.0526 156.396 29.0526 156.381 29.0526C156.395 29.0526 156.411 29.0526 156.425 29.0526ZM156.363 29.0504C156.35 29.0504 156.336 29.0504 156.324 29.0504C156.338 29.0504 156.349 29.0504 156.363 29.0504ZM156.3 29.0504C156.288 29.0504 156.275 29.0504 156.263 29.0482C156.275 29.0504 156.289 29.0504 156.3 29.0504ZM156.24 29.0482C156.228 29.0482 156.214 29.0482 156.202 29.0482C156.213 29.0482 156.228 29.0482 156.24 29.0482ZM156.18 29.0482C156.168 29.0482 156.154 29.046 156.141 29.046C156.155 29.046 156.166 29.0482 156.18 29.0482ZM156.119 29.046C156.106 29.046 156.095 29.046 156.083 29.046C156.095 29.046 156.107 29.046 156.119 29.046ZM156.058 29.046C156.046 29.046 156.033 29.046 156.021 29.0438C156.032 29.046 156.046 29.046 156.058 29.046ZM155.998 29.0438C155.982 29.0438 155.967 29.0438 155.952 29.0438C155.969 29.0438 155.981 29.0438 155.998 29.0438ZM155.938 29.0438C155.918 29.0438 155.899 29.0438 155.877 29.0415C155.897 29.0438 155.919 29.0438 155.938 29.0438ZM155.877 29.0415C155.824 29.0415 155.769 29.0416 155.716 29.0393C155.77 29.0416 155.823 29.0415 155.877 29.0415ZM153.321 29.0305C153.462 29.0305 153.602 29.0283 153.742 29.0283C153.757 29.0283 153.773 29.0283 153.789 29.0283C153.632 29.0305 153.478 29.0305 153.321 29.0305Z" fill="#FFF6AF"/>
<path d="M57.96 89.3328C75.2195 53.9873 111.412 29.5138 152.92 29.0412C153.054 29.0367 153.186 29.0345 153.32 29.0323C153.478 29.0323 153.631 29.0301 153.788 29.0301C153.8 29.0301 153.81 29.0301 153.821 29.0301C153.935 29.0301 154.049 29.0301 154.165 29.0301C154.68 29.0301 155.197 29.0345 155.715 29.0412C155.768 29.0412 155.823 29.0434 155.877 29.0434C155.898 29.0434 155.917 29.0434 155.938 29.0456C155.942 29.0456 155.946 29.0456 155.951 29.0456C155.966 29.0456 155.982 29.0456 155.997 29.0456C156.004 29.0456 156.012 29.0456 156.02 29.0456C156.033 29.0456 156.045 29.0456 156.057 29.0478C156.064 29.0478 156.074 29.0478 156.082 29.0478C156.095 29.0478 156.105 29.0478 156.118 29.0478C156.125 29.0478 156.133 29.0478 156.14 29.0478C156.153 29.0478 156.167 29.0478 156.179 29.05C156.187 29.05 156.193 29.05 156.201 29.05C156.213 29.05 156.227 29.05 156.239 29.05C156.247 29.05 156.255 29.05 156.262 29.05C156.274 29.05 156.287 29.05 156.299 29.0522C156.307 29.0522 156.316 29.0522 156.323 29.0522C156.335 29.0522 156.349 29.0522 156.362 29.0522C156.367 29.0522 156.375 29.0522 156.381 29.0522C156.395 29.0522 156.41 29.0544 156.425 29.0544C156.432 29.0544 156.434 29.0544 156.44 29.0544C156.456 29.0544 156.471 29.0544 156.487 29.0544C156.491 29.0544 156.496 29.0544 156.5 29.0544C156.516 29.0566 156.533 29.0566 156.549 29.0566C156.551 29.0566 156.559 29.0566 156.561 29.0566C156.582 29.0566 156.595 29.0566 156.617 29.0588H156.62C156.638 29.0588 156.657 29.0588 156.675 29.0588C156.678 29.0588 156.68 29.0588 156.683 29.0588C156.807 29.0632 156.927 29.0654 157.051 29.0699C157.053 29.0699 157.054 29.0699 157.056 29.0699C157.074 29.0699 157.095 29.0699 157.113 29.0699C157.115 29.0699 157.115 29.0699 157.117 29.0699C157.138 29.0721 157.152 29.0721 157.173 29.0721C157.175 29.0721 157.178 29.0721 157.182 29.0721C157.196 29.0721 157.218 29.0743 157.234 29.0743C157.236 29.0743 157.241 29.0743 157.243 29.0743C157.258 29.0743 157.28 29.0743 157.296 29.0765C157.3 29.0765 157.298 29.0765 157.303 29.0765C157.323 29.0765 157.34 29.0765 157.36 29.0787C157.362 29.0787 157.359 29.0765 157.362 29.0787C157.383 29.0787 157.401 29.0787 157.421 29.0787H157.423C157.444 29.0809 157.463 29.0809 157.483 29.0809C157.486 29.0809 157.482 29.0809 157.486 29.0809C160.838 29.1847 164.15 29.4431 167.421 29.8494H167.423C167.443 29.8516 167.461 29.8539 167.481 29.8561C167.503 29.8583 167.52 29.8605 167.54 29.8627L167.545 29.8649C167.582 29.8693 167.62 29.8737 167.662 29.8781C167.682 29.8826 167.699 29.8825 167.719 29.887C167.721 29.887 167.721 29.887 167.724 29.887C167.743 29.8892 167.759 29.8914 167.779 29.8936C167.781 29.8936 167.781 29.8936 167.783 29.8936C167.905 29.909 168.024 29.9245 168.143 29.94C168.163 29.9444 168.183 29.9466 168.203 29.9488C168.223 29.951 168.238 29.9532 168.258 29.9554C168.26 29.9554 168.269 29.9576 168.271 29.9576C168.289 29.9599 168.302 29.9621 168.32 29.9643C168.324 29.9643 168.324 29.9643 168.331 29.9665C168.344 29.9665 168.36 29.9687 168.375 29.9709C168.382 29.9731 168.386 29.9731 168.393 29.9731C168.406 29.9753 168.419 29.9775 168.435 29.9797C168.439 29.9797 168.446 29.9819 168.45 29.9819C168.468 29.9841 168.479 29.9863 168.492 29.9863C168.497 29.9886 168.505 29.9886 168.51 29.9886C168.525 29.9908 168.539 29.993 168.554 29.9952C168.558 29.9952 168.565 29.9974 168.569 29.9974C168.58 29.9996 168.596 30.0018 168.609 30.004C168.616 30.004 168.622 30.004 168.629 30.0062C168.642 30.0084 168.653 30.0084 168.667 30.0107C168.675 30.0129 168.68 30.0129 168.689 30.0129C168.702 30.0151 168.711 30.0173 168.724 30.0195C168.731 30.0195 168.739 30.0217 168.748 30.0217C168.759 30.0239 168.775 30.0261 168.786 30.0261C168.79 30.0283 168.801 30.0283 168.806 30.0305C168.821 30.0327 168.834 30.0327 168.85 30.0349C168.854 30.0371 168.859 30.0371 168.863 30.0371C168.881 30.0393 168.896 30.0416 168.912 30.0438C168.916 30.0438 168.923 30.046 168.925 30.046C168.945 30.0482 168.96 30.0504 168.98 30.0548C168.985 30.0548 168.987 30.0548 168.991 30.0548C169.009 30.057 169.022 30.0592 169.04 30.0614C169.044 30.0636 169.053 30.0637 169.06 30.0659C169.071 30.0659 169.084 30.0681 169.097 30.0703C169.106 30.0725 169.117 30.0725 169.126 30.0747C169.137 30.0747 169.144 30.0769 169.152 30.0769C169.161 30.0791 169.175 30.0813 169.183 30.0813C169.194 30.0835 169.203 30.0857 169.212 30.0857C169.221 30.0879 169.23 30.0879 169.241 30.0901C169.25 30.0924 169.261 30.0924 169.27 30.0946C169.278 30.0968 169.289 30.0968 169.296 30.099C169.307 30.099 169.318 30.1012 169.329 30.1034C169.338 30.1034 169.349 30.1056 169.358 30.1078C169.369 30.1078 169.373 30.11 169.384 30.11C169.393 30.1122 169.406 30.1144 169.415 30.1144C169.426 30.1166 169.433 30.1189 169.444 30.1189C169.453 30.1211 169.464 30.1233 169.475 30.1233C169.484 30.1255 169.493 30.1255 169.504 30.1277C169.512 30.1299 169.521 30.1299 169.53 30.1321C169.541 30.1343 169.548 30.1343 169.559 30.1365C169.568 30.1365 169.583 30.1387 169.592 30.1409C169.596 30.1409 169.603 30.1432 169.61 30.1432C169.623 30.1454 169.636 30.1476 169.649 30.1498C169.654 30.1498 169.658 30.1498 169.665 30.152C169.678 30.1542 169.694 30.1564 169.707 30.1586C169.709 30.1586 169.711 30.1586 169.713 30.1586C169.802 30.1718 169.897 30.1851 169.985 30.1984C169.987 30.1984 169.987 30.1984 169.989 30.1984C170.027 30.205 170.065 30.2094 170.102 30.216C170.12 30.2182 170.137 30.2204 170.155 30.2248H170.159C170.175 30.2271 170.193 30.2293 170.21 30.2315C170.212 30.2315 170.215 30.2337 170.217 30.2337C170.235 30.2359 170.248 30.2381 170.268 30.2403C170.27 30.2403 170.268 30.2403 170.27 30.2403C170.29 30.2447 170.303 30.2469 170.323 30.2492C170.325 30.2492 170.325 30.2492 170.327 30.2492C170.345 30.2536 170.365 30.2558 170.38 30.258C170.4 30.2602 170.418 30.2646 170.436 30.2668H170.438C203.888 35.3903 232.229 56.019 247.906 84.5825C229.707 59.1638 201.389 41.4899 168.843 37.4287C168.154 41.3618 161.657 44.447 153.741 44.447C145.964 44.447 139.558 41.4701 138.681 37.6363C119.489 40.3151 101.743 47.7861 86.7344 58.806C86.7613 58.7552 86.7885 58.7066 86.8145 58.6558V58.658C86.6575 58.8016 86.5014 58.9474 86.3455 59.0931C75.1731 67.368 65.5321 77.6216 57.96 89.3328Z" fill="#FCD199"/>
<path d="M169.624 159.548C169.658 159.533 169.692 159.52 169.725 159.505C169.692 159.52 169.656 159.533 169.624 159.548ZM169.753 159.494C169.778 159.483 169.8 159.475 169.825 159.464C169.799 159.475 169.78 159.483 169.753 159.494ZM169.857 159.45C169.881 159.439 169.909 159.429 169.931 159.419C169.907 159.429 169.882 159.439 169.857 159.45ZM169.957 159.409C169.991 159.394 170.02 159.381 170.054 159.367C170.023 159.381 169.99 159.395 169.957 159.409ZM170.059 159.366C170.094 159.351 170.128 159.337 170.164 159.322C170.129 159.337 170.094 159.351 170.059 159.366ZM170.17 159.319C170.201 159.306 170.235 159.293 170.266 159.278C170.233 159.293 170.202 159.306 170.17 159.319ZM170.285 159.271C170.316 159.259 170.342 159.247 170.373 159.234C170.343 159.246 170.314 159.259 170.285 159.271ZM170.387 159.226C170.421 159.213 170.454 159.2 170.487 159.185C170.455 159.2 170.421 159.213 170.387 159.226ZM170.49 159.184C170.564 159.153 170.631 159.124 170.703 159.093C170.633 159.124 170.562 159.153 170.49 159.184ZM170.712 159.09C170.744 159.077 170.777 159.062 170.809 159.049C170.775 159.062 170.746 159.077 170.712 159.09ZM170.819 159.044C170.962 158.984 171.102 158.924 171.245 158.864C171.102 158.924 170.962 158.984 170.819 159.044ZM171.248 158.861C171.571 158.723 171.889 158.586 172.212 158.448C171.891 158.586 171.569 158.724 171.248 158.861ZM172.217 158.445C172.359 158.384 172.499 158.324 172.641 158.262C172.5 158.322 172.358 158.385 172.217 158.445ZM172.646 158.259C172.786 158.199 172.927 158.137 173.068 158.075C172.927 158.137 172.786 158.199 172.646 158.259ZM173.077 158.071C173.215 158.011 173.358 157.948 173.497 157.888C173.356 157.949 173.218 158.009 173.077 158.071ZM173.507 157.883C173.537 157.87 173.57 157.855 173.601 157.841C173.572 157.855 173.537 157.87 173.507 157.883ZM173.61 157.838C173.713 157.792 173.82 157.745 173.923 157.7C173.82 157.745 173.714 157.792 173.61 157.838ZM173.936 157.694C173.968 157.679 173.993 157.669 174.024 157.654C173.996 157.667 173.965 157.681 173.936 157.694ZM174.042 157.647C174.076 157.632 174.106 157.619 174.14 157.604C174.106 157.619 174.077 157.632 174.042 157.647ZM174.14 157.603C174.209 157.572 174.28 157.541 174.349 157.512C174.28 157.541 174.209 157.572 174.14 157.603ZM174.366 157.503C174.394 157.491 174.423 157.478 174.45 157.466C174.423 157.478 174.394 157.491 174.366 157.503ZM174.469 157.457C174.498 157.444 174.525 157.432 174.554 157.419C174.528 157.432 174.497 157.444 174.469 157.457ZM174.573 157.41C174.641 157.381 174.705 157.352 174.771 157.322C174.705 157.352 174.641 157.381 174.573 157.41ZM174.802 157.309C174.826 157.297 174.848 157.287 174.873 157.277C174.849 157.287 174.824 157.299 174.802 157.309ZM174.904 157.264C174.926 157.253 174.949 157.243 174.971 157.233C174.948 157.243 174.927 157.252 174.904 157.264ZM175.003 157.218C175.03 157.206 175.056 157.195 175.083 157.183C175.058 157.193 175.028 157.208 175.003 157.218ZM175.102 157.174C175.133 157.159 175.169 157.143 175.2 157.13C175.168 157.145 175.134 157.159 175.102 157.174ZM175.225 157.12C175.25 157.108 175.272 157.098 175.297 157.087C175.274 157.098 175.249 157.109 175.225 157.12ZM175.334 157.07C175.353 157.061 175.372 157.052 175.392 157.043C175.372 157.052 175.353 157.061 175.334 157.07ZM175.436 157.024C175.454 157.017 175.47 157.008 175.489 157.001C175.47 157.008 175.454 157.015 175.436 157.024ZM175.533 156.98C175.548 156.973 175.566 156.966 175.582 156.958C175.564 156.966 175.55 156.973 175.533 156.98ZM175.676 156.916C175.69 156.908 175.704 156.904 175.717 156.897C175.705 156.902 175.689 156.91 175.676 156.916ZM175.773 156.872C175.784 156.867 175.799 156.86 175.809 156.854C175.798 156.86 175.784 156.866 175.773 156.872ZM175.868 156.828C175.88 156.823 175.892 156.817 175.902 156.813C175.892 156.817 175.88 156.823 175.868 156.828ZM175.965 156.783C175.968 156.783 175.971 156.782 175.972 156.781C175.971 156.782 175.968 156.783 175.965 156.783ZM176.218 156.669C176.22 156.667 176.223 156.667 176.228 156.665C176.225 156.666 176.22 156.667 176.218 156.669ZM176.309 156.628L176.312 156.626L176.309 156.628Z" fill="#5B6D54"/>
<path d="M101.087 174.543C92.8968 174.543 84.9213 173.804 77.2474 172.29C73.4607 171.355 69.7509 170.228 66.135 168.889C59.4691 166.422 54.6948 160.509 53.6111 153.483C52.6936 147.532 52.2664 141.42 52.3749 135.189C52.898 105.18 65.9134 78.1948 86.3462 59.0921C86.476 58.9948 86.6049 58.8996 86.7349 58.8044C78.9899 73.25 74.463 89.6686 74.1591 107.108C74.1535 107.436 74.1488 107.765 74.1466 108.093C73.9918 126.389 86.9993 142.109 104.978 145.52C112.402 146.928 120.1 147.615 128.002 147.615C149.825 147.615 173.196 142.374 196.561 132.612C213.143 125.682 228.213 117.097 241.157 107.106C225.956 127.404 203.365 144.281 176.313 156.625L176.309 156.627C176.283 156.64 176.257 156.652 176.228 156.664C176.224 156.666 176.222 156.668 176.218 156.668C176.135 156.706 176.056 156.743 175.973 156.779C175.971 156.781 175.969 156.783 175.967 156.783C175.945 156.793 175.924 156.802 175.904 156.812C175.892 156.816 175.88 156.822 175.87 156.826C175.849 156.836 175.831 156.844 175.811 156.854C175.801 156.858 175.785 156.866 175.772 156.87C175.752 156.879 175.738 156.887 175.718 156.895C175.704 156.903 175.691 156.907 175.677 156.915C175.645 156.927 175.614 156.943 175.582 156.958C175.566 156.964 175.55 156.972 175.533 156.98C175.519 156.986 175.503 156.992 175.489 157C175.471 157.008 175.454 157.014 175.438 157.022C175.424 157.028 175.408 157.035 175.394 157.043C175.373 157.051 175.353 157.061 175.335 157.069C175.323 157.075 175.311 157.079 175.298 157.087C175.272 157.097 175.25 157.107 175.226 157.118C175.215 157.122 175.209 157.126 175.201 157.13C175.171 157.142 175.134 157.158 175.104 157.174C175.096 157.176 175.092 157.178 175.084 157.18C175.057 157.195 175.031 157.205 175.005 157.217C174.995 157.221 174.982 157.227 174.972 157.233C174.95 157.243 174.928 157.253 174.903 157.263C174.893 157.268 174.883 157.272 174.873 157.276C174.849 157.286 174.826 157.296 174.802 157.308C174.794 157.312 174.782 157.316 174.772 157.322C174.705 157.351 174.64 157.381 174.575 157.409C174.567 157.413 174.561 157.415 174.555 157.419C174.527 157.432 174.5 157.444 174.47 157.456C174.464 157.46 174.458 157.462 174.452 157.464C174.423 157.476 174.395 157.49 174.369 157.503C174.361 157.505 174.356 157.507 174.35 157.511C174.282 157.541 174.211 157.571 174.142 157.602H174.14C174.107 157.618 174.077 157.63 174.042 157.646C174.038 157.648 174.03 157.65 174.024 157.654C173.994 157.667 173.97 157.679 173.937 157.693C173.931 157.695 173.929 157.697 173.923 157.699C173.822 157.744 173.714 157.792 173.611 157.837C173.607 157.839 173.607 157.839 173.603 157.841C173.57 157.853 173.538 157.869 173.508 157.881C173.504 157.883 173.502 157.885 173.498 157.885C173.358 157.948 173.216 158.009 173.078 158.07C173.076 158.072 173.07 158.074 173.07 158.076C172.928 158.137 172.789 158.197 172.647 158.258C172.645 158.26 172.645 158.26 172.643 158.26C172.499 158.323 172.361 158.382 172.217 158.444C172.215 158.446 172.213 158.446 172.213 158.446C171.891 158.586 171.571 158.722 171.249 158.86L171.245 158.862C171.103 158.923 170.961 158.983 170.82 159.044C170.815 159.044 170.813 159.046 170.809 159.048C170.777 159.062 170.745 159.074 170.712 159.089C170.71 159.091 170.706 159.093 170.704 159.093C170.631 159.123 170.564 159.151 170.491 159.182C170.491 159.184 170.491 159.184 170.487 159.184C170.455 159.198 170.422 159.212 170.388 159.226C170.384 159.228 170.38 159.23 170.374 159.232C170.343 159.247 170.317 159.257 170.285 159.269C170.279 159.271 170.273 159.275 170.266 159.277C170.236 159.291 170.202 159.305 170.171 159.318C170.169 159.318 170.167 159.32 170.165 159.32C170.129 159.336 170.094 159.35 170.06 159.364C170.056 159.366 170.056 159.366 170.056 159.366C170.021 159.38 169.993 159.393 169.959 159.407C169.948 159.411 169.94 159.415 169.932 159.417C169.91 159.427 169.882 159.439 169.859 159.449C169.849 159.453 169.837 159.457 169.827 159.463C169.801 159.474 169.778 159.482 169.754 159.494C169.744 159.496 169.734 159.502 169.726 159.504C169.691 159.52 169.659 159.532 169.624 159.546C146.264 169.309 122.905 174.543 101.087 174.543Z" fill="#BF6700"/>
<path d="M86.3457 59.0909C86.5016 58.945 86.6576 58.8011 86.8147 58.6572V58.6552C86.7885 58.7059 86.7616 58.7545 86.7344 58.8052C86.6045 58.9004 86.4756 58.9957 86.3457 59.0909Z" fill="#D19982"/>
<path d="M101.668 69.8993C100.56 73.3811 98.6473 75.9293 97.4291 75.5427C96.2111 75.154 96.1207 71.9707 97.228 68.487C98.3342 65.0052 100.248 62.4569 101.467 62.8436C102.608 63.2082 102.773 66.0329 101.843 69.3163L101.668 69.8993Z" fill="#FCE69F"/>
<path d="M119.745 72.1424C119.12 75.7446 117.57 78.5278 116.31 78.3091C115.051 78.0904 114.529 74.9475 115.154 71.3473C115.78 67.7451 117.33 64.9619 118.589 65.1806C119.77 65.3854 120.316 68.1625 119.84 71.5421L119.745 72.1424Z" fill="#FCE69F"/>
<path d="M143.083 71.419C143.592 75.0389 142.97 78.1638 141.704 78.3407C140.437 78.5196 138.978 75.6869 138.469 72.067C137.961 68.4492 138.585 65.3243 139.849 65.1473C141.036 64.9804 142.407 67.4552 142.99 70.8187L143.083 71.419Z" fill="#FCE69F"/>
<path d="M162.6 63.935C164.534 67.0357 165.23 70.1445 164.147 70.821C163.063 71.4974 160.578 69.5005 158.646 66.3998C156.71 63.2991 156.013 60.1903 157.097 59.5139C158.114 58.88 160.372 60.5873 162.267 63.4247L162.6 63.935Z" fill="#FCE69F"/>
<path d="M177.567 51.5235C180.16 54.1016 181.548 56.9687 180.645 57.8756C179.743 58.7803 176.872 57.4043 174.281 54.8262C171.69 52.2481 170.3 49.381 171.202 48.4741C172.048 47.626 174.635 48.7716 177.131 51.1004L177.567 51.5235Z" fill="#FCE69F"/>
<path d="M104.075 129.001C102.858 129.001 101.875 128.017 101.875 126.802C101.875 125.585 102.858 124.601 104.075 124.601C105.289 124.601 106.274 125.585 106.274 126.802C106.274 128.017 105.289 129.001 104.075 129.001Z" fill="#BF6700"/>
<path d="M139.562 108.099C138.348 108.099 137.362 107.114 137.362 105.899C137.362 104.682 138.348 103.697 139.562 103.697C140.777 103.697 141.763 104.682 141.763 105.899C141.763 107.114 140.777 108.099 139.562 108.099Z" fill="#BF6700"/>
<path d="M146.834 130.997C145.617 130.997 144.634 130.012 144.634 128.798C144.634 127.583 145.617 126.597 146.834 126.597C148.048 126.597 149.033 127.583 149.033 128.798C149.033 130.012 148.048 130.997 146.834 130.997Z" fill="#E99335"/>
<path d="M168.066 104.064C166.851 104.064 165.867 103.079 165.867 101.863C165.867 100.648 166.851 99.6633 168.066 99.6633C169.282 99.6633 170.268 100.648 170.268 101.863C170.268 103.079 169.282 104.064 168.066 104.064Z" fill="#E99335"/>
<path d="M190.781 122.071C189.566 122.071 188.58 121.086 188.58 119.872C188.58 118.655 189.566 117.672 190.781 117.672C191.997 117.672 192.983 118.655 192.983 119.872C192.983 121.086 191.997 122.071 190.781 122.071Z" fill="#BF6700"/>
<path d="M193.724 88.7785C192.509 88.7785 191.524 87.7936 191.524 86.5789C191.524 85.3623 192.509 84.3774 193.724 84.3774C194.941 84.3774 195.924 85.3623 195.924 86.5789C195.924 87.7936 194.941 88.7785 193.724 88.7785Z" fill="#BF6700"/>
<path d="M209.54 69.9234C208.325 69.9234 207.339 68.9391 207.339 67.7245C207.339 66.51 208.325 65.5237 209.54 65.5237C210.754 65.5237 211.741 66.51 211.741 67.7245C211.741 68.9391 210.754 69.9234 209.54 69.9234Z" fill="#BF6700"/>
<path d="M104.515 106.151C103.3 106.151 102.314 105.165 102.314 103.949C102.314 102.735 103.3 101.75 104.515 101.75C105.73 101.75 106.716 102.735 106.716 103.949C106.716 105.165 105.73 106.151 104.515 106.151Z" fill="#E99335"/>
<path d="M231.122 90.6471C229.907 90.6471 228.923 89.6626 228.923 88.4479C228.923 87.2332 229.907 86.2469 231.122 86.2469C232.339 86.2469 233.323 87.2332 233.323 88.4479C233.323 89.6626 232.339 90.6471 231.122 90.6471Z" fill="#BF6700"/>
<path d="M216.855 114.676C215.641 114.676 214.654 113.69 214.654 112.475C214.654 111.26 215.641 110.275 216.855 110.275C218.07 110.275 219.055 111.26 219.055 112.475C219.055 113.69 218.07 114.676 216.855 114.676Z" fill="#E99335"/>
<path d="M154.132 31.318C97.274 31.318 50.5065 77.0664 49.5122 134.084C49.4069 140.132 49.8217 146.207 50.7461 152.14C51.6997 158.264 55.8717 163.4 61.636 165.546C91.5549 176.675 129.592 173.793 168.742 157.434C201.984 143.544 227.795 123.671 243.381 99.9628C246.942 94.5508 247.096 87.4943 243.773 81.9888C224.996 50.852 192.123 31.9144 155.841 31.3314C155.271 31.3224 154.7 31.318 154.132 31.318ZM101.033 176.841C86.3118 176.841 72.5664 174.496 60.0391 169.836C52.7247 167.115 47.4302 160.603 46.2218 152.843C45.2578 146.655 44.8247 140.315 44.9347 134.004C45.4407 104.983 57.2944 77.8163 78.3124 57.5101C99.3249 37.2107 126.884 26.271 155.914 26.7538C174.728 27.0565 193.207 32.2326 209.358 41.7214C225.04 50.9365 238.297 64.0437 247.694 79.6233C251.92 86.6308 251.729 95.6011 247.209 102.477C231.118 126.952 204.594 147.416 170.506 161.658C150.759 169.911 131.347 174.856 112.808 176.356C108.819 176.679 104.892 176.841 101.033 176.841Z" fill="#6D184E"/>
<path d="M219.849 244.342C218.531 251.456 211.693 256.152 204.579 254.834C197.466 253.514 192.767 246.677 194.089 239.563C194.863 235.383 196.538 236.332 199.272 237.281C201.19 237.948 203.627 238.614 206.639 237.507C215.239 234.349 221.168 237.228 219.849 244.342Z" fill="#FCAF15"/>
<path d="M204.555 254.829H204.554H204.555ZM213.319 245.783C213.64 244.985 213.885 244.144 214.049 243.266C214.658 239.982 213.708 237.615 211.678 236.313C212.127 236.27 212.56 236.25 212.98 236.25C217.9 236.25 220.778 239.141 219.862 244.263C220.155 242.627 220.048 241.225 219.624 240.063C218.133 242.354 215.894 244.463 213.319 245.783ZM219.853 244.316C219.853 244.314 219.855 244.31 219.855 244.307C219.855 244.31 219.853 244.313 219.853 244.316ZM219.859 244.291C219.859 244.282 219.86 244.274 219.862 244.265C219.86 244.274 219.859 244.282 219.859 244.291Z" fill="#FED78A"/>
<path d="M204.578 254.834C204.571 254.832 204.564 254.831 204.556 254.83C204.563 254.831 204.571 254.832 204.578 254.834ZM219.012 247.114C219.385 246.242 219.668 245.314 219.849 244.342C219.851 244.334 219.852 244.325 219.854 244.316C219.852 244.325 219.851 244.333 219.849 244.342C219.668 245.314 219.385 246.242 219.012 247.114Z" fill="#D18126"/>
<path d="M194.09 239.563C194.09 239.559 194.09 239.554 194.092 239.549C194.09 239.554 194.09 239.559 194.09 239.563Z" fill="#6D184E"/>
<path d="M204.555 254.83C197.454 253.5 192.769 246.67 194.088 239.563C194.088 239.56 194.089 239.555 194.089 239.551C194.494 237.388 195.139 236.607 196.05 236.486C197.367 241.124 200.965 246.088 206.027 247.027C206.631 247.139 207.233 247.192 207.835 247.192C209.732 247.192 211.601 246.662 213.319 245.783C211.403 250.538 206.846 253.736 201.742 253.956C202.627 254.342 203.564 254.643 204.555 254.83ZM219.854 244.307C219.856 244.302 219.857 244.297 219.857 244.291C219.857 244.297 219.856 244.302 219.854 244.307ZM219.863 244.265C219.863 244.265 219.863 244.264 219.863 244.263C219.863 244.264 219.863 244.265 219.863 244.265Z" fill="#D18126"/>
<path d="M207.065 255.056C212.27 255.022 216.977 251.877 219.012 247.114C216.977 251.878 212.27 255.023 207.065 255.056Z" fill="#D3B392"/>
<path d="M206.983 255.056C206.191 255.056 205.385 254.983 204.579 254.834C204.57 254.832 204.563 254.831 204.556 254.83H204.555C203.566 254.643 202.628 254.341 201.742 253.956C206.848 253.736 211.402 250.538 213.32 245.783C215.895 244.463 218.134 242.354 219.624 240.063C220.048 241.225 220.156 242.627 219.864 244.263C219.864 244.264 219.864 244.265 219.864 244.265C219.861 244.274 219.861 244.282 219.859 244.291C219.857 244.297 219.857 244.302 219.855 244.307C219.855 244.31 219.854 244.314 219.854 244.316C219.852 244.325 219.85 244.334 219.848 244.342C219.67 245.314 219.385 246.241 219.013 247.114C216.977 251.877 212.269 255.022 207.067 255.056C207.037 255.056 207.011 255.056 206.983 255.056Z" fill="#D29D78"/>
<path d="M196.642 238.811C196.559 239.028 196.447 239.393 196.338 239.982C195.812 242.821 196.422 245.695 198.056 248.076C199.692 250.455 202.157 252.056 204.996 252.583C207.836 253.109 210.709 252.5 213.09 250.863C215.471 249.229 217.07 246.764 217.598 243.925C217.856 242.533 217.892 240.646 216.604 239.558C214.938 238.152 211.423 238.191 207.427 239.657C203.325 241.165 200.073 240.002 197.92 239.232C197.513 239.087 196.996 238.901 196.642 238.811ZM207.001 257.347C206.058 257.347 205.108 257.26 204.159 257.084C200.12 256.335 196.612 254.057 194.283 250.668C191.955 247.28 191.086 243.188 191.836 239.147C192.129 237.571 192.676 235.642 194.333 234.689C196.049 233.7 197.862 234.35 199.463 234.922C201.351 235.596 203.304 236.294 205.85 235.36C211.553 233.265 216.548 233.52 219.556 236.059C221.874 238.015 222.777 241.106 222.098 244.76C221.35 248.802 219.071 252.31 215.683 254.638C213.089 256.42 210.082 257.347 207.001 257.347Z" fill="#6D184E"/>
<path d="M236.885 154.112C237.81 154.537 238.891 154.428 239.768 153.914C243.39 151.786 254.959 144.754 256.907 140.606C259.079 135.981 230.347 151.109 236.885 154.112Z" fill="#E5525F"/>
<path d="M163.001 316.686C105.115 316.686 58.1895 311.206 58.1895 304.448C58.1895 297.689 105.115 292.21 163.001 292.21C220.885 292.21 267.811 297.689 267.811 304.448C267.811 311.206 220.885 316.686 163.001 316.686Z" fill="#F2A40C"/>
</svg>
