<svg width="123" height="36" viewBox="0 0 123 36" fill="none" xmlns="http://www.w3.org/2000/svg">
<path d="M4.896 12.108C4.288 12.108 3.72 12 3.192 11.784C2.664 11.56 2.2 11.252 1.8 10.86C1.408 10.46 1.1 9.996 0.876 9.468C0.66 8.94 0.552 8.372 0.552 7.764C0.552 7.148 0.66 6.58 0.876 6.06C1.1 5.532 1.408 5.072 1.8 4.68C2.2 4.288 2.66 3.984 3.18 3.768C3.708 3.544 4.28 3.432 4.896 3.432C5.512 3.432 6.08 3.544 6.6 3.768C7.128 3.984 7.588 4.288 7.98 4.68C8.372 5.072 8.676 5.532 8.892 6.06C9.116 6.58 9.228 7.148 9.228 7.764C9.228 8.372 9.116 8.94 8.892 9.468C8.676 9.996 8.372 10.46 7.98 10.86C7.588 11.252 7.128 11.56 6.6 11.784C6.08 12 5.512 12.108 4.896 12.108ZM4.896 11.58C5.432 11.58 5.928 11.484 6.384 11.292C6.848 11.1 7.248 10.832 7.584 10.488C7.928 10.136 8.196 9.732 8.388 9.276C8.58 8.812 8.676 8.308 8.676 7.764C8.676 7.22 8.58 6.72 8.388 6.264C8.196 5.8 7.928 5.396 7.584 5.052C7.248 4.708 6.848 4.44 6.384 4.248C5.928 4.056 5.432 3.96 4.896 3.96C4.352 3.96 3.848 4.056 3.384 4.248C2.928 4.44 2.528 4.708 2.184 5.052C1.848 5.396 1.584 5.8 1.392 6.264C1.2 6.72 1.104 7.22 1.104 7.764C1.104 8.308 1.2 8.812 1.392 9.276C1.584 9.732 1.848 10.136 2.184 10.488C2.528 10.832 2.928 11.1 3.384 11.292C3.848 11.484 4.352 11.58 4.896 11.58ZM5.052 10.356C4.276 10.356 3.664 10.116 3.216 9.636C2.776 9.156 2.556 8.52 2.556 7.728C2.556 6.944 2.776 6.324 3.216 5.868C3.664 5.412 4.276 5.184 5.052 5.184C5.324 5.184 5.596 5.228 5.868 5.316C6.14 5.404 6.384 5.528 6.6 5.688C6.672 5.736 6.72 5.796 6.744 5.868C6.768 5.94 6.772 6.012 6.756 6.084C6.74 6.148 6.708 6.204 6.66 6.252C6.612 6.3 6.552 6.328 6.48 6.336C6.408 6.344 6.328 6.32 6.24 6.264C6.048 6.136 5.856 6.044 5.664 5.988C5.472 5.932 5.284 5.904 5.1 5.904C4.572 5.904 4.16 6.064 3.864 6.384C3.568 6.704 3.42 7.156 3.42 7.74C3.42 8.324 3.568 8.788 3.864 9.132C4.16 9.468 4.572 9.636 5.1 9.636C5.284 9.636 5.472 9.608 5.664 9.552C5.856 9.496 6.052 9.4 6.252 9.264C6.356 9.2 6.448 9.184 6.528 9.216C6.616 9.24 6.68 9.292 6.72 9.372C6.76 9.444 6.772 9.528 6.756 9.624C6.74 9.712 6.688 9.784 6.6 9.84C6.384 10.008 6.136 10.136 5.856 10.224C5.584 10.312 5.316 10.356 5.052 10.356ZM16.4549 12.084C16.2949 12.084 16.1709 12.04 16.0829 11.952C16.0029 11.856 15.9629 11.724 15.9629 11.556V7.62L16.1789 8.304L13.1669 4.152C13.0949 4.048 13.0589 3.944 13.0589 3.84C13.0669 3.728 13.1109 3.636 13.1909 3.564C13.2709 3.492 13.3749 3.456 13.5029 3.456C13.6149 3.456 13.7149 3.484 13.8029 3.54C13.8909 3.588 13.9709 3.668 14.0429 3.78L16.5989 7.308H16.3469L18.9029 3.78C18.9909 3.66 19.0749 3.576 19.1549 3.528C19.2349 3.48 19.3309 3.456 19.4429 3.456C19.5709 3.456 19.6709 3.492 19.7429 3.564C19.8149 3.628 19.8509 3.716 19.8509 3.828C19.8589 3.932 19.8229 4.044 19.7429 4.164L16.7429 8.304L16.9469 7.62V11.556C16.9469 11.908 16.7829 12.084 16.4549 12.084ZM22.4141 12.108C21.8461 12.108 21.3541 11.984 20.9381 11.736C20.5221 11.488 20.1981 11.14 19.9661 10.692C19.7421 10.236 19.6301 9.7 19.6301 9.084C19.6301 8.62 19.6941 8.204 19.8221 7.836C19.9501 7.46 20.1381 7.14 20.3861 6.876C20.6341 6.612 20.9261 6.412 21.2621 6.276C21.6061 6.132 21.9901 6.06 22.4141 6.06C22.9821 6.06 23.4741 6.184 23.8901 6.432C24.3061 6.68 24.6261 7.032 24.8501 7.488C25.0821 7.936 25.1981 8.468 25.1981 9.084C25.1981 9.548 25.1341 9.964 25.0061 10.332C24.8781 10.7 24.6901 11.02 24.4421 11.292C24.1941 11.556 23.8981 11.76 23.5541 11.904C23.2181 12.04 22.8381 12.108 22.4141 12.108ZM22.4141 11.328C22.7741 11.328 23.0901 11.24 23.3621 11.064C23.6341 10.888 23.8421 10.632 23.9861 10.296C24.1381 9.96 24.2141 9.556 24.2141 9.084C24.2141 8.356 24.0501 7.8 23.7221 7.416C23.4021 7.032 22.9661 6.84 22.4141 6.84C22.0461 6.84 21.7261 6.928 21.4541 7.104C21.1901 7.272 20.9821 7.524 20.8301 7.86C20.6861 8.188 20.6141 8.596 20.6141 9.084C20.6141 9.804 20.7781 10.36 21.1061 10.752C21.4341 11.136 21.8701 11.328 22.4141 11.328ZM28.7221 12.108C28.2501 12.108 27.8581 12.024 27.5461 11.856C27.2421 11.68 27.0101 11.42 26.8501 11.076C26.6981 10.732 26.6221 10.304 26.6221 9.792V6.576C26.6221 6.408 26.6621 6.284 26.7421 6.204C26.8301 6.124 26.9501 6.084 27.1021 6.084C27.2621 6.084 27.3821 6.124 27.4621 6.204C27.5501 6.284 27.5941 6.408 27.5941 6.576V9.78C27.5941 10.292 27.6981 10.676 27.9061 10.932C28.1221 11.18 28.4581 11.304 28.9141 11.304C29.4101 11.304 29.8141 11.136 30.1261 10.8C30.4381 10.464 30.5941 10.024 30.5941 9.48V6.576C30.5941 6.408 30.6341 6.284 30.7141 6.204C30.8021 6.124 30.9261 6.084 31.0861 6.084C31.2381 6.084 31.3541 6.124 31.4341 6.204C31.5221 6.284 31.5661 6.408 31.5661 6.576V11.58C31.5661 11.916 31.4101 12.084 31.0981 12.084C30.9461 12.084 30.8261 12.04 30.7381 11.952C30.6581 11.864 30.6181 11.74 30.6181 11.58V10.488L30.7741 10.656C30.6141 11.128 30.3501 11.488 29.9821 11.736C29.6221 11.984 29.2021 12.108 28.7221 12.108ZM33.9967 12.084C33.8527 12.084 33.7407 12.044 33.6607 11.964C33.5807 11.876 33.5407 11.756 33.5407 11.604V3.936C33.5407 3.776 33.5807 3.656 33.6607 3.576C33.7407 3.496 33.8527 3.456 33.9967 3.456C34.1247 3.456 34.2247 3.484 34.2967 3.54C34.3767 3.588 34.4487 3.672 34.5127 3.792L37.8007 9.984H37.4407L40.7167 3.792C40.7807 3.672 40.8487 3.588 40.9207 3.54C40.9927 3.484 41.0967 3.456 41.2327 3.456C41.3687 3.456 41.4767 3.496 41.5567 3.576C41.6367 3.656 41.6767 3.776 41.6767 3.936V11.604C41.6767 11.756 41.6367 11.876 41.5567 11.964C41.4847 12.044 41.3727 12.084 41.2207 12.084C41.0767 12.084 40.9647 12.044 40.8847 11.964C40.8047 11.876 40.7647 11.756 40.7647 11.604V4.86H41.0527L38.0527 10.488C37.9967 10.592 37.9367 10.668 37.8727 10.716C37.8167 10.756 37.7327 10.776 37.6207 10.776C37.5087 10.776 37.4207 10.752 37.3567 10.704C37.2927 10.656 37.2367 10.584 37.1887 10.488L34.1527 4.848H34.4407V11.604C34.4407 11.756 34.4007 11.876 34.3207 11.964C34.2487 12.044 34.1407 12.084 33.9967 12.084ZM46.2783 12.108C45.6623 12.108 45.1303 11.988 44.6823 11.748C44.2423 11.5 43.8983 11.152 43.6503 10.704C43.4103 10.256 43.2903 9.72 43.2903 9.096C43.2903 8.488 43.4103 7.96 43.6503 7.512C43.8903 7.056 44.2183 6.7 44.6343 6.444C45.0583 6.188 45.5463 6.06 46.0983 6.06C46.4903 6.06 46.8423 6.128 47.1543 6.264C47.4663 6.392 47.7303 6.58 47.9463 6.828C48.1703 7.076 48.3383 7.376 48.4503 7.728C48.5703 8.08 48.6303 8.476 48.6303 8.916C48.6303 9.044 48.5943 9.14 48.5223 9.204C48.4503 9.26 48.3463 9.288 48.2103 9.288H44.0343V8.652H47.9823L47.7903 8.808C47.7903 8.376 47.7263 8.012 47.5983 7.716C47.4703 7.412 47.2823 7.18 47.0343 7.02C46.7943 6.86 46.4903 6.78 46.1223 6.78C45.7143 6.78 45.3663 6.876 45.0783 7.068C44.7983 7.252 44.5863 7.512 44.4423 7.848C44.2983 8.176 44.2263 8.56 44.2263 9V9.072C44.2263 9.808 44.4023 10.368 44.7543 10.752C45.1143 11.136 45.6223 11.328 46.2783 11.328C46.5503 11.328 46.8183 11.292 47.0823 11.22C47.3543 11.148 47.6183 11.028 47.8743 10.86C47.9863 10.788 48.0863 10.756 48.1743 10.764C48.2703 10.764 48.3463 10.792 48.4023 10.848C48.4583 10.896 48.4943 10.96 48.5103 11.04C48.5343 11.112 48.5263 11.192 48.4863 11.28C48.4543 11.368 48.3863 11.444 48.2823 11.508C48.0183 11.7 47.7063 11.848 47.3463 11.952C46.9863 12.056 46.6303 12.108 46.2783 12.108ZM51.873 12.108C51.473 12.108 51.113 12.032 50.793 11.88C50.481 11.72 50.233 11.504 50.049 11.232C49.865 10.96 49.773 10.656 49.773 10.32C49.773 9.888 49.881 9.548 50.097 9.3C50.321 9.052 50.685 8.876 51.189 8.772C51.701 8.668 52.397 8.616 53.277 8.616H53.817V9.252H53.289C52.641 9.252 52.129 9.284 51.753 9.348C51.385 9.404 51.125 9.504 50.973 9.648C50.829 9.792 50.757 9.996 50.757 10.26C50.757 10.588 50.869 10.856 51.093 11.064C51.325 11.272 51.637 11.376 52.029 11.376C52.349 11.376 52.629 11.3 52.869 11.148C53.117 10.996 53.309 10.788 53.445 10.524C53.589 10.26 53.661 9.956 53.661 9.612V8.244C53.661 7.748 53.561 7.392 53.361 7.176C53.161 6.952 52.833 6.84 52.377 6.84C52.097 6.84 51.817 6.876 51.537 6.948C51.257 7.02 50.961 7.136 50.649 7.296C50.537 7.352 50.441 7.372 50.361 7.356C50.281 7.332 50.217 7.288 50.169 7.224C50.121 7.16 50.093 7.088 50.085 7.008C50.077 6.92 50.093 6.836 50.133 6.756C50.181 6.676 50.253 6.612 50.349 6.564C50.701 6.388 51.049 6.26 51.393 6.18C51.737 6.1 52.065 6.06 52.377 6.06C52.881 6.06 53.297 6.144 53.625 6.312C53.953 6.472 54.197 6.72 54.357 7.056C54.517 7.384 54.597 7.808 54.597 8.328V11.58C54.597 11.74 54.557 11.864 54.477 11.952C54.405 12.04 54.297 12.084 54.153 12.084C54.001 12.084 53.885 12.04 53.805 11.952C53.725 11.864 53.685 11.74 53.685 11.58V10.644H53.793C53.729 10.948 53.605 11.208 53.421 11.424C53.245 11.64 53.025 11.808 52.761 11.928C52.497 12.048 52.201 12.108 51.873 12.108ZM58.1763 12.108C57.6003 12.108 57.1603 11.932 56.8563 11.58C56.5523 11.228 56.4003 10.724 56.4003 10.068V3.948C56.4003 3.788 56.4403 3.668 56.5203 3.588C56.6003 3.5 56.7203 3.456 56.8803 3.456C57.0323 3.456 57.1523 3.5 57.2403 3.588C57.3283 3.668 57.3723 3.788 57.3723 3.948V9.996C57.3723 10.428 57.4563 10.752 57.6243 10.968C57.8003 11.176 58.0563 11.28 58.3923 11.28C58.4643 11.28 58.5283 11.276 58.5843 11.268C58.6403 11.26 58.6963 11.256 58.7523 11.256C58.8403 11.248 58.9003 11.268 58.9323 11.316C58.9723 11.364 58.9923 11.46 58.9923 11.604C58.9923 11.748 58.9603 11.856 58.8963 11.928C58.8323 12 58.7283 12.048 58.5843 12.072C58.5203 12.08 58.4523 12.088 58.3803 12.096C58.3083 12.104 58.2403 12.108 58.1763 12.108ZM60.6443 13.14C60.5643 13.244 60.4803 13.304 60.3923 13.32C60.3043 13.336 60.2283 13.32 60.1643 13.272C60.1003 13.224 60.0643 13.156 60.0563 13.068C60.0563 12.98 60.0963 12.884 60.1763 12.78C60.3043 12.612 60.3923 12.44 60.4403 12.264C60.4883 12.096 60.5123 11.94 60.5123 11.796L60.5603 12.048C60.3523 12.048 60.1843 11.988 60.0563 11.868C59.9363 11.74 59.8763 11.58 59.8763 11.388C59.8763 11.196 59.9323 11.04 60.0443 10.92C60.1643 10.792 60.3203 10.728 60.5123 10.728C60.7203 10.728 60.8843 10.8 61.0043 10.944C61.1243 11.08 61.1843 11.28 61.1843 11.544C61.1843 11.712 61.1683 11.884 61.1363 12.06C61.1043 12.244 61.0483 12.428 60.9683 12.612C60.8883 12.796 60.7803 12.972 60.6443 13.14ZM66.5285 12C66.3525 12 66.2205 11.96 66.1325 11.88C66.0525 11.792 66.0125 11.676 66.0125 11.532C66.0125 11.444 66.0325 11.36 66.0725 11.28C66.1205 11.192 66.1845 11.104 66.2645 11.016L68.9525 8.136C69.3605 7.696 69.6525 7.292 69.8285 6.924C70.0125 6.548 70.1045 6.168 70.1045 5.784C70.1045 5.304 69.9565 4.94 69.6605 4.692C69.3725 4.436 68.9485 4.308 68.3885 4.308C68.0285 4.308 67.6885 4.364 67.3685 4.476C67.0485 4.588 66.7405 4.76 66.4445 4.992C66.3405 5.072 66.2445 5.108 66.1565 5.1C66.0765 5.092 66.0045 5.06 65.9405 5.004C65.8765 4.948 65.8325 4.876 65.8085 4.788C65.7845 4.7 65.7845 4.612 65.8085 4.524C65.8405 4.436 65.9045 4.356 66.0005 4.284C66.3125 4.028 66.6885 3.824 67.1285 3.672C67.5685 3.512 68.0165 3.432 68.4725 3.432C69.0405 3.432 69.5205 3.52 69.9125 3.696C70.3045 3.872 70.6005 4.132 70.8005 4.476C71.0005 4.812 71.1005 5.224 71.1005 5.712C71.1005 6.048 71.0445 6.38 70.9325 6.708C70.8285 7.028 70.6645 7.356 70.4405 7.692C70.2245 8.028 69.9405 8.376 69.5885 8.736L67.0325 11.436V11.16H71.0765C71.2285 11.16 71.3405 11.196 71.4125 11.268C71.4925 11.332 71.5325 11.432 71.5325 11.568C71.5325 11.712 71.4925 11.82 71.4125 11.892C71.3405 11.964 71.2285 12 71.0765 12H66.5285ZM75.7758 12.108C74.8078 12.108 74.0718 11.736 73.5678 10.992C73.0638 10.248 72.8118 9.172 72.8118 7.764C72.8118 6.82 72.9238 6.028 73.1478 5.388C73.3718 4.74 73.7038 4.252 74.1438 3.924C74.5918 3.596 75.1358 3.432 75.7758 3.432C76.7518 3.432 77.4878 3.8 77.9838 4.536C78.4878 5.264 78.7398 6.336 78.7398 7.752C78.7398 8.696 78.6278 9.492 78.4038 10.14C78.1798 10.788 77.8478 11.28 77.4078 11.616C76.9678 11.944 76.4238 12.108 75.7758 12.108ZM75.7758 11.256C76.4478 11.256 76.9438 10.972 77.2638 10.404C77.5918 9.828 77.7558 8.944 77.7558 7.752C77.7558 6.552 77.5918 5.676 77.2638 5.124C76.9438 4.564 76.4478 4.284 75.7758 4.284C75.1118 4.284 74.6158 4.564 74.2878 5.124C73.9598 5.684 73.7958 6.56 73.7958 7.752C73.7958 8.944 73.9598 9.828 74.2878 10.404C74.6158 10.972 75.1118 11.256 75.7758 11.256ZM80.9191 12C80.7431 12 80.6111 11.96 80.5231 11.88C80.4431 11.792 80.4031 11.676 80.4031 11.532C80.4031 11.444 80.4231 11.36 80.4631 11.28C80.5111 11.192 80.5751 11.104 80.6551 11.016L83.3431 8.136C83.7511 7.696 84.0431 7.292 84.2191 6.924C84.4031 6.548 84.4951 6.168 84.4951 5.784C84.4951 5.304 84.3471 4.94 84.0511 4.692C83.7631 4.436 83.3391 4.308 82.7791 4.308C82.4191 4.308 82.0791 4.364 81.7591 4.476C81.4391 4.588 81.1311 4.76 80.8351 4.992C80.7311 5.072 80.6351 5.108 80.5471 5.1C80.4671 5.092 80.3951 5.06 80.3311 5.004C80.2671 4.948 80.2231 4.876 80.1991 4.788C80.1751 4.7 80.1751 4.612 80.1991 4.524C80.2311 4.436 80.2951 4.356 80.3911 4.284C80.7031 4.028 81.0791 3.824 81.5191 3.672C81.9591 3.512 82.4071 3.432 82.8631 3.432C83.4311 3.432 83.9111 3.52 84.3031 3.696C84.6951 3.872 84.9911 4.132 85.1911 4.476C85.3911 4.812 85.4911 5.224 85.4911 5.712C85.4911 6.048 85.4351 6.38 85.3231 6.708C85.2191 7.028 85.0551 7.356 84.8311 7.692C84.6151 8.028 84.3311 8.376 83.9791 8.736L81.4231 11.436V11.16H85.4671C85.6191 11.16 85.7311 11.196 85.8031 11.268C85.8831 11.332 85.9231 11.432 85.9231 11.568C85.9231 11.712 85.8831 11.82 85.8031 11.892C85.7311 11.964 85.6191 12 85.4671 12H80.9191ZM88.1144 12C87.9384 12 87.8064 11.96 87.7184 11.88C87.6384 11.792 87.5984 11.676 87.5984 11.532C87.5984 11.444 87.6184 11.36 87.6584 11.28C87.7064 11.192 87.7704 11.104 87.8504 11.016L90.5384 8.136C90.9464 7.696 91.2384 7.292 91.4144 6.924C91.5984 6.548 91.6904 6.168 91.6904 5.784C91.6904 5.304 91.5424 4.94 91.2464 4.692C90.9584 4.436 90.5344 4.308 89.9744 4.308C89.6144 4.308 89.2744 4.364 88.9544 4.476C88.6344 4.588 88.3264 4.76 88.0304 4.992C87.9264 5.072 87.8304 5.108 87.7424 5.1C87.6624 5.092 87.5904 5.06 87.5264 5.004C87.4624 4.948 87.4184 4.876 87.3944 4.788C87.3704 4.7 87.3704 4.612 87.3944 4.524C87.4264 4.436 87.4904 4.356 87.5864 4.284C87.8984 4.028 88.2744 3.824 88.7144 3.672C89.1544 3.512 89.6024 3.432 90.0584 3.432C90.6264 3.432 91.1064 3.52 91.4984 3.696C91.8904 3.872 92.1864 4.132 92.3864 4.476C92.5864 4.812 92.6864 5.224 92.6864 5.712C92.6864 6.048 92.6304 6.38 92.5184 6.708C92.4144 7.028 92.2504 7.356 92.0264 7.692C91.8104 8.028 91.5264 8.376 91.1744 8.736L88.6184 11.436V11.16H92.6624C92.8144 11.16 92.9264 11.196 92.9984 11.268C93.0784 11.332 93.1184 11.432 93.1184 11.568C93.1184 11.712 93.0784 11.82 92.9984 11.892C92.9264 11.964 92.8144 12 92.6624 12H88.1144Z" fill="black"/>
<path d="M1.584 32C1.408 32 1.272 31.956 1.176 31.868C1.088 31.772 1.044 31.636 1.044 31.46V24.08C1.044 23.904 1.088 23.772 1.176 23.684C1.272 23.588 1.408 23.54 1.584 23.54H3.9C5.268 23.54 6.324 23.9 7.068 24.62C7.812 25.34 8.184 26.388 8.184 27.764C8.184 28.452 8.088 29.06 7.896 29.588C7.712 30.108 7.436 30.548 7.068 30.908C6.7 31.268 6.252 31.54 5.724 31.724C5.196 31.908 4.588 32 3.9 32H1.584ZM2.028 31.16H3.828C4.388 31.16 4.872 31.088 5.28 30.944C5.696 30.8 6.04 30.588 6.312 30.308C6.592 30.028 6.8 29.676 6.936 29.252C7.072 28.82 7.14 28.324 7.14 27.764C7.14 26.636 6.864 25.792 6.312 25.232C5.76 24.664 4.932 24.38 3.828 24.38H2.028V31.16ZM12.4463 32.108C11.8303 32.108 11.2983 31.988 10.8503 31.748C10.4103 31.5 10.0663 31.152 9.81825 30.704C9.57825 30.256 9.45825 29.72 9.45825 29.096C9.45825 28.488 9.57825 27.96 9.81825 27.512C10.0583 27.056 10.3863 26.7 10.8023 26.444C11.2263 26.188 11.7143 26.06 12.2663 26.06C12.6583 26.06 13.0103 26.128 13.3223 26.264C13.6343 26.392 13.8983 26.58 14.1143 26.828C14.3383 27.076 14.5063 27.376 14.6183 27.728C14.7383 28.08 14.7983 28.476 14.7983 28.916C14.7983 29.044 14.7623 29.14 14.6903 29.204C14.6183 29.26 14.5143 29.288 14.3783 29.288H10.2023V28.652H14.1503L13.9583 28.808C13.9583 28.376 13.8943 28.012 13.7663 27.716C13.6383 27.412 13.4503 27.18 13.2023 27.02C12.9623 26.86 12.6583 26.78 12.2903 26.78C11.8823 26.78 11.5343 26.876 11.2463 27.068C10.9663 27.252 10.7543 27.512 10.6103 27.848C10.4663 28.176 10.3943 28.56 10.3943 29V29.072C10.3943 29.808 10.5703 30.368 10.9223 30.752C11.2823 31.136 11.7903 31.328 12.4463 31.328C12.7183 31.328 12.9863 31.292 13.2503 31.22C13.5223 31.148 13.7863 31.028 14.0423 30.86C14.1543 30.788 14.2543 30.756 14.3423 30.764C14.4383 30.764 14.5143 30.792 14.5703 30.848C14.6263 30.896 14.6623 30.96 14.6783 31.04C14.7023 31.112 14.6943 31.192 14.6543 31.28C14.6223 31.368 14.5543 31.444 14.4503 31.508C14.1863 31.7 13.8743 31.848 13.5143 31.952C13.1543 32.056 12.7983 32.108 12.4463 32.108ZM18.173 32.108C17.813 32.108 17.449 32.064 17.081 31.976C16.721 31.888 16.385 31.736 16.073 31.52C15.993 31.464 15.937 31.4 15.905 31.328C15.873 31.248 15.861 31.172 15.869 31.1C15.885 31.02 15.917 30.952 15.965 30.896C16.021 30.84 16.085 30.808 16.157 30.8C16.237 30.784 16.325 30.8 16.421 30.848C16.733 31.04 17.033 31.176 17.321 31.256C17.617 31.328 17.909 31.364 18.197 31.364C18.653 31.364 18.997 31.28 19.229 31.112C19.461 30.944 19.577 30.716 19.577 30.428C19.577 30.204 19.501 30.028 19.349 29.9C19.197 29.764 18.957 29.66 18.629 29.588L17.537 29.348C17.033 29.244 16.657 29.064 16.409 28.808C16.169 28.552 16.049 28.22 16.049 27.812C16.049 27.452 16.141 27.144 16.325 26.888C16.517 26.624 16.785 26.42 17.129 26.276C17.473 26.132 17.873 26.06 18.329 26.06C18.681 26.06 19.013 26.108 19.325 26.204C19.645 26.292 19.933 26.436 20.189 26.636C20.269 26.692 20.321 26.76 20.345 26.84C20.377 26.912 20.381 26.988 20.357 27.068C20.341 27.14 20.305 27.204 20.249 27.26C20.193 27.308 20.125 27.336 20.045 27.344C19.965 27.352 19.881 27.328 19.793 27.272C19.553 27.112 19.309 26.996 19.061 26.924C18.813 26.844 18.569 26.804 18.329 26.804C17.881 26.804 17.541 26.892 17.309 27.068C17.077 27.244 16.961 27.476 16.961 27.764C16.961 27.988 17.033 28.172 17.177 28.316C17.321 28.46 17.545 28.564 17.849 28.628L18.941 28.856C19.461 28.968 19.849 29.148 20.105 29.396C20.369 29.636 20.501 29.964 20.501 30.38C20.501 30.908 20.289 31.328 19.865 31.64C19.441 31.952 18.877 32.108 18.173 32.108ZM22.4623 32.06C22.3023 32.06 22.1823 32.016 22.1023 31.928C22.0223 31.832 21.9823 31.7 21.9823 31.532V26.624C21.9823 26.456 22.0223 26.328 22.1023 26.24C22.1823 26.152 22.3023 26.108 22.4623 26.108C22.6143 26.108 22.7343 26.152 22.8223 26.24C22.9103 26.328 22.9543 26.456 22.9543 26.624V31.532C22.9543 31.7 22.9103 31.832 22.8223 31.928C22.7423 32.016 22.6223 32.06 22.4623 32.06ZM22.4623 24.764C22.2623 24.764 22.1063 24.712 21.9943 24.608C21.8823 24.496 21.8263 24.348 21.8263 24.164C21.8263 23.972 21.8823 23.828 21.9943 23.732C22.1063 23.628 22.2623 23.576 22.4623 23.576C22.6703 23.576 22.8263 23.628 22.9303 23.732C23.0423 23.828 23.0983 23.972 23.0983 24.164C23.0983 24.348 23.0423 24.496 22.9303 24.608C22.8263 24.712 22.6703 24.764 22.4623 24.764ZM27.3514 34.268C26.9274 34.268 26.5114 34.216 26.1034 34.112C25.7034 34.016 25.3394 33.86 25.0114 33.644C24.9154 33.588 24.8514 33.52 24.8194 33.44C24.7954 33.36 24.7914 33.28 24.8074 33.2C24.8234 33.128 24.8594 33.06 24.9154 32.996C24.9714 32.94 25.0354 32.904 25.1074 32.888C25.1874 32.872 25.2674 32.884 25.3474 32.924C25.6994 33.14 26.0354 33.288 26.3554 33.368C26.6754 33.448 26.9914 33.488 27.3034 33.488C27.8714 33.488 28.2994 33.336 28.5874 33.032C28.8834 32.728 29.0314 32.288 29.0314 31.712V30.356H29.1514C29.0314 30.82 28.7754 31.188 28.3834 31.46C27.9994 31.732 27.5474 31.868 27.0274 31.868C26.4914 31.868 26.0274 31.748 25.6354 31.508C25.2434 31.26 24.9394 30.916 24.7234 30.476C24.5154 30.036 24.4114 29.528 24.4114 28.952C24.4114 28.52 24.4714 28.128 24.5914 27.776C24.7114 27.416 24.8834 27.112 25.1074 26.864C25.3394 26.608 25.6154 26.412 25.9354 26.276C26.2634 26.132 26.6274 26.06 27.0274 26.06C27.5554 26.06 28.0114 26.196 28.3954 26.468C28.7794 26.732 29.0274 27.092 29.1394 27.548L29.0194 27.692V26.576C29.0194 26.416 29.0594 26.296 29.1394 26.216C29.2274 26.128 29.3474 26.084 29.4994 26.084C29.6594 26.084 29.7794 26.128 29.8594 26.216C29.9394 26.296 29.9794 26.416 29.9794 26.576V31.58C29.9794 32.468 29.7554 33.136 29.3074 33.584C28.8674 34.04 28.2154 34.268 27.3514 34.268ZM27.2074 31.076C27.5834 31.076 27.9074 30.992 28.1794 30.824C28.4514 30.648 28.6594 30.4 28.8034 30.08C28.9554 29.76 29.0314 29.384 29.0314 28.952C29.0314 28.304 28.8674 27.792 28.5394 27.416C28.2114 27.032 27.7674 26.84 27.2074 26.84C26.8394 26.84 26.5194 26.928 26.2474 27.104C25.9754 27.272 25.7634 27.516 25.6114 27.836C25.4674 28.148 25.3954 28.52 25.3954 28.952C25.3954 29.6 25.5594 30.116 25.8874 30.5C26.2154 30.884 26.6554 31.076 27.2074 31.076ZM32.2826 32.084C32.1226 32.084 32.0026 32.04 31.9226 31.952C31.8426 31.864 31.8026 31.74 31.8026 31.58V26.576C31.8026 26.416 31.8426 26.296 31.9226 26.216C32.0026 26.128 32.1186 26.084 32.2706 26.084C32.4226 26.084 32.5386 26.128 32.6186 26.216C32.7066 26.296 32.7506 26.416 32.7506 26.576V27.608L32.6186 27.464C32.7866 27 33.0586 26.652 33.4346 26.42C33.8186 26.18 34.2586 26.06 34.7546 26.06C35.2186 26.06 35.6026 26.144 35.9066 26.312C36.2186 26.48 36.4506 26.736 36.6026 27.08C36.7546 27.416 36.8306 27.844 36.8306 28.364V31.58C36.8306 31.74 36.7866 31.864 36.6986 31.952C36.6186 32.04 36.5026 32.084 36.3506 32.084C36.1906 32.084 36.0666 32.04 35.9786 31.952C35.8986 31.864 35.8586 31.74 35.8586 31.58V28.424C35.8586 27.88 35.7506 27.484 35.5346 27.236C35.3266 26.98 34.9906 26.852 34.5266 26.852C33.9906 26.852 33.5626 27.02 33.2426 27.356C32.9306 27.684 32.7746 28.124 32.7746 28.676V31.58C32.7746 31.916 32.6106 32.084 32.2826 32.084ZM39.0909 32.048C38.8909 32.048 38.7309 31.988 38.6109 31.868C38.4909 31.74 38.4309 31.58 38.4309 31.388C38.4309 31.196 38.4909 31.04 38.6109 30.92C38.7309 30.792 38.8909 30.728 39.0909 30.728C39.2909 30.728 39.4469 30.792 39.5589 30.92C39.6789 31.04 39.7389 31.196 39.7389 31.388C39.7389 31.58 39.6789 31.74 39.5589 31.868C39.4469 31.988 39.2909 32.048 39.0909 32.048ZM39.0909 27.44C38.8909 27.44 38.7309 27.376 38.6109 27.248C38.4909 27.12 38.4309 26.964 38.4309 26.78C38.4309 26.58 38.4909 26.42 38.6109 26.3C38.7309 26.18 38.8909 26.12 39.0909 26.12C39.2909 26.12 39.4469 26.18 39.5589 26.3C39.6789 26.42 39.7389 26.58 39.7389 26.78C39.7389 26.964 39.6789 27.12 39.5589 27.248C39.4469 27.376 39.2909 27.44 39.0909 27.44ZM44.3992 32.084C44.2712 32.084 44.1672 32.056 44.0872 32C44.0152 31.936 43.9712 31.856 43.9552 31.76C43.9472 31.656 43.9712 31.54 44.0272 31.412L47.3272 23.9C47.3992 23.74 47.4832 23.628 47.5792 23.564C47.6832 23.492 47.7952 23.456 47.9152 23.456C48.0352 23.456 48.1432 23.492 48.2392 23.564C48.3432 23.628 48.4272 23.74 48.4912 23.9L51.8032 31.412C51.8672 31.54 51.8912 31.656 51.8752 31.76C51.8672 31.864 51.8272 31.944 51.7552 32C51.6832 32.056 51.5832 32.084 51.4552 32.084C51.3112 32.084 51.1952 32.048 51.1072 31.976C51.0192 31.896 50.9472 31.784 50.8912 31.64L50.0032 29.588L50.4832 29.84H45.3232L45.8152 29.588L44.9392 31.64C44.8672 31.792 44.7912 31.904 44.7112 31.976C44.6312 32.048 44.5272 32.084 44.3992 32.084ZM47.9032 24.692L45.9712 29.24L45.6832 29.012H50.1232L49.8592 29.24L47.9272 24.692H47.9032ZM53.6693 32.084C53.5093 32.084 53.3893 32.04 53.3093 31.952C53.2293 31.864 53.1893 31.74 53.1893 31.58V26.576C53.1893 26.416 53.2293 26.296 53.3093 26.216C53.3893 26.128 53.5053 26.084 53.6573 26.084C53.8093 26.084 53.9253 26.128 54.0053 26.216C54.0933 26.296 54.1373 26.416 54.1373 26.576V27.608L54.0053 27.464C54.1733 27 54.4453 26.652 54.8213 26.42C55.2053 26.18 55.6453 26.06 56.1413 26.06C56.6053 26.06 56.9893 26.144 57.2933 26.312C57.6053 26.48 57.8373 26.736 57.9893 27.08C58.1413 27.416 58.2173 27.844 58.2173 28.364V31.58C58.2173 31.74 58.1733 31.864 58.0853 31.952C58.0053 32.04 57.8893 32.084 57.7373 32.084C57.5773 32.084 57.4533 32.04 57.3653 31.952C57.2853 31.864 57.2453 31.74 57.2453 31.58V28.424C57.2453 27.88 57.1373 27.484 56.9213 27.236C56.7133 26.98 56.3773 26.852 55.9133 26.852C55.3773 26.852 54.9493 27.02 54.6293 27.356C54.3173 27.684 54.1613 28.124 54.1613 28.676V31.58C54.1613 31.916 53.9973 32.084 53.6693 32.084ZM61.8457 32.108C61.4457 32.108 61.0857 32.032 60.7657 31.88C60.4537 31.72 60.2057 31.504 60.0217 31.232C59.8377 30.96 59.7457 30.656 59.7457 30.32C59.7457 29.888 59.8537 29.548 60.0697 29.3C60.2937 29.052 60.6577 28.876 61.1617 28.772C61.6737 28.668 62.3697 28.616 63.2497 28.616H63.7897V29.252H63.2617C62.6137 29.252 62.1017 29.284 61.7257 29.348C61.3577 29.404 61.0977 29.504 60.9457 29.648C60.8017 29.792 60.7297 29.996 60.7297 30.26C60.7297 30.588 60.8417 30.856 61.0657 31.064C61.2977 31.272 61.6097 31.376 62.0017 31.376C62.3217 31.376 62.6017 31.3 62.8417 31.148C63.0897 30.996 63.2817 30.788 63.4177 30.524C63.5617 30.26 63.6337 29.956 63.6337 29.612V28.244C63.6337 27.748 63.5337 27.392 63.3337 27.176C63.1337 26.952 62.8057 26.84 62.3497 26.84C62.0697 26.84 61.7897 26.876 61.5097 26.948C61.2297 27.02 60.9337 27.136 60.6217 27.296C60.5097 27.352 60.4137 27.372 60.3337 27.356C60.2537 27.332 60.1897 27.288 60.1417 27.224C60.0937 27.16 60.0657 27.088 60.0577 27.008C60.0497 26.92 60.0657 26.836 60.1057 26.756C60.1537 26.676 60.2257 26.612 60.3217 26.564C60.6737 26.388 61.0217 26.26 61.3657 26.18C61.7097 26.1 62.0377 26.06 62.3497 26.06C62.8537 26.06 63.2697 26.144 63.5977 26.312C63.9257 26.472 64.1697 26.72 64.3297 27.056C64.4897 27.384 64.5697 27.808 64.5697 28.328V31.58C64.5697 31.74 64.5297 31.864 64.4497 31.952C64.3777 32.04 64.2697 32.084 64.1257 32.084C63.9737 32.084 63.8577 32.04 63.7777 31.952C63.6977 31.864 63.6577 31.74 63.6577 31.58V30.644H63.7657C63.7017 30.948 63.5777 31.208 63.3937 31.424C63.2177 31.64 62.9977 31.808 62.7337 31.928C62.4697 32.048 62.1737 32.108 61.8457 32.108ZM68.3409 32.108C67.9809 32.108 67.6169 32.064 67.2489 31.976C66.8889 31.888 66.5529 31.736 66.2409 31.52C66.1609 31.464 66.1049 31.4 66.0729 31.328C66.0409 31.248 66.0289 31.172 66.0369 31.1C66.0529 31.02 66.0849 30.952 66.1329 30.896C66.1889 30.84 66.2529 30.808 66.3249 30.8C66.4049 30.784 66.4929 30.8 66.5889 30.848C66.9009 31.04 67.2009 31.176 67.4889 31.256C67.7849 31.328 68.0769 31.364 68.3649 31.364C68.8209 31.364 69.1649 31.28 69.3969 31.112C69.6289 30.944 69.7449 30.716 69.7449 30.428C69.7449 30.204 69.6689 30.028 69.5169 29.9C69.3649 29.764 69.1249 29.66 68.7969 29.588L67.7049 29.348C67.2009 29.244 66.8249 29.064 66.5769 28.808C66.3369 28.552 66.2169 28.22 66.2169 27.812C66.2169 27.452 66.3089 27.144 66.4929 26.888C66.6849 26.624 66.9529 26.42 67.2969 26.276C67.6409 26.132 68.0409 26.06 68.4969 26.06C68.8489 26.06 69.1809 26.108 69.4929 26.204C69.8129 26.292 70.1009 26.436 70.3569 26.636C70.4369 26.692 70.4889 26.76 70.5129 26.84C70.5449 26.912 70.5489 26.988 70.5249 27.068C70.5089 27.14 70.4729 27.204 70.4169 27.26C70.3609 27.308 70.2929 27.336 70.2129 27.344C70.1329 27.352 70.0489 27.328 69.9609 27.272C69.7209 27.112 69.4769 26.996 69.2289 26.924C68.9809 26.844 68.7369 26.804 68.4969 26.804C68.0489 26.804 67.7089 26.892 67.4769 27.068C67.2449 27.244 67.1289 27.476 67.1289 27.764C67.1289 27.988 67.2009 28.172 67.3449 28.316C67.4889 28.46 67.7129 28.564 68.0169 28.628L69.1089 28.856C69.6289 28.968 70.0169 29.148 70.2729 29.396C70.5369 29.636 70.6689 29.964 70.6689 30.38C70.6689 30.908 70.4569 31.328 70.0329 31.64C69.6089 31.952 69.0449 32.108 68.3409 32.108ZM74.4317 32.108C73.9757 32.108 73.5917 32.028 73.2797 31.868C72.9757 31.7 72.7477 31.46 72.5957 31.148C72.4437 30.828 72.3677 30.44 72.3677 29.984V26.924H71.5637C71.4277 26.924 71.3237 26.892 71.2517 26.828C71.1797 26.756 71.1437 26.66 71.1437 26.54C71.1437 26.42 71.1797 26.328 71.2517 26.264C71.3237 26.2 71.4277 26.168 71.5637 26.168H72.3677V24.788C72.3677 24.628 72.4117 24.508 72.4997 24.428C72.5877 24.34 72.7077 24.296 72.8597 24.296C73.0117 24.296 73.1277 24.34 73.2077 24.428C73.2957 24.508 73.3397 24.628 73.3397 24.788V26.168H74.8517C74.9877 26.168 75.0917 26.2 75.1637 26.264C75.2357 26.328 75.2717 26.42 75.2717 26.54C75.2717 26.66 75.2357 26.756 75.1637 26.828C75.0917 26.892 74.9877 26.924 74.8517 26.924H73.3397V29.888C73.3397 30.344 73.4357 30.692 73.6277 30.932C73.8197 31.164 74.1317 31.28 74.5637 31.28C74.7157 31.28 74.8437 31.264 74.9477 31.232C75.0597 31.2 75.1517 31.184 75.2237 31.184C75.2957 31.176 75.3557 31.2 75.4037 31.256C75.4517 31.312 75.4757 31.408 75.4757 31.544C75.4757 31.64 75.4557 31.728 75.4157 31.808C75.3837 31.888 75.3237 31.944 75.2357 31.976C75.1397 32.008 75.0117 32.036 74.8517 32.06C74.6997 32.092 74.5597 32.108 74.4317 32.108ZM78.123 32.108C77.723 32.108 77.363 32.032 77.043 31.88C76.731 31.72 76.483 31.504 76.299 31.232C76.115 30.96 76.023 30.656 76.023 30.32C76.023 29.888 76.131 29.548 76.347 29.3C76.571 29.052 76.935 28.876 77.439 28.772C77.951 28.668 78.647 28.616 79.527 28.616H80.067V29.252H79.539C78.891 29.252 78.379 29.284 78.003 29.348C77.635 29.404 77.375 29.504 77.223 29.648C77.079 29.792 77.007 29.996 77.007 30.26C77.007 30.588 77.119 30.856 77.343 31.064C77.575 31.272 77.887 31.376 78.279 31.376C78.599 31.376 78.879 31.3 79.119 31.148C79.367 30.996 79.559 30.788 79.695 30.524C79.839 30.26 79.911 29.956 79.911 29.612V28.244C79.911 27.748 79.811 27.392 79.611 27.176C79.411 26.952 79.083 26.84 78.627 26.84C78.347 26.84 78.067 26.876 77.787 26.948C77.507 27.02 77.211 27.136 76.899 27.296C76.787 27.352 76.691 27.372 76.611 27.356C76.531 27.332 76.467 27.288 76.419 27.224C76.371 27.16 76.343 27.088 76.335 27.008C76.327 26.92 76.343 26.836 76.383 26.756C76.431 26.676 76.503 26.612 76.599 26.564C76.951 26.388 77.299 26.26 77.643 26.18C77.987 26.1 78.315 26.06 78.627 26.06C79.131 26.06 79.547 26.144 79.875 26.312C80.203 26.472 80.447 26.72 80.607 27.056C80.767 27.384 80.847 27.808 80.847 28.328V31.58C80.847 31.74 80.807 31.864 80.727 31.952C80.655 32.04 80.547 32.084 80.403 32.084C80.251 32.084 80.135 32.04 80.055 31.952C79.975 31.864 79.935 31.74 79.935 31.58V30.644H80.043C79.979 30.948 79.855 31.208 79.671 31.424C79.495 31.64 79.275 31.808 79.011 31.928C78.747 32.048 78.451 32.108 78.123 32.108ZM84.6183 32.108C84.2583 32.108 83.8943 32.064 83.5263 31.976C83.1663 31.888 82.8303 31.736 82.5183 31.52C82.4383 31.464 82.3823 31.4 82.3503 31.328C82.3183 31.248 82.3063 31.172 82.3143 31.1C82.3303 31.02 82.3623 30.952 82.4103 30.896C82.4663 30.84 82.5303 30.808 82.6023 30.8C82.6823 30.784 82.7703 30.8 82.8663 30.848C83.1783 31.04 83.4783 31.176 83.7663 31.256C84.0623 31.328 84.3543 31.364 84.6423 31.364C85.0983 31.364 85.4423 31.28 85.6743 31.112C85.9063 30.944 86.0223 30.716 86.0223 30.428C86.0223 30.204 85.9463 30.028 85.7943 29.9C85.6423 29.764 85.4023 29.66 85.0743 29.588L83.9823 29.348C83.4783 29.244 83.1023 29.064 82.8543 28.808C82.6143 28.552 82.4943 28.22 82.4943 27.812C82.4943 27.452 82.5863 27.144 82.7703 26.888C82.9623 26.624 83.2303 26.42 83.5743 26.276C83.9183 26.132 84.3183 26.06 84.7743 26.06C85.1263 26.06 85.4583 26.108 85.7703 26.204C86.0903 26.292 86.3783 26.436 86.6343 26.636C86.7143 26.692 86.7663 26.76 86.7903 26.84C86.8223 26.912 86.8263 26.988 86.8023 27.068C86.7863 27.14 86.7503 27.204 86.6943 27.26C86.6383 27.308 86.5703 27.336 86.4903 27.344C86.4103 27.352 86.3263 27.328 86.2383 27.272C85.9983 27.112 85.7543 26.996 85.5063 26.924C85.2583 26.844 85.0143 26.804 84.7743 26.804C84.3263 26.804 83.9863 26.892 83.7543 27.068C83.5223 27.244 83.4063 27.476 83.4063 27.764C83.4063 27.988 83.4783 28.172 83.6223 28.316C83.7663 28.46 83.9903 28.564 84.2943 28.628L85.3863 28.856C85.9063 28.968 86.2943 29.148 86.5503 29.396C86.8143 29.636 86.9463 29.964 86.9463 30.38C86.9463 30.908 86.7343 31.328 86.3103 31.64C85.8863 31.952 85.3223 32.108 84.6183 32.108ZM88.9076 32.06C88.7476 32.06 88.6276 32.016 88.5476 31.928C88.4676 31.832 88.4276 31.7 88.4276 31.532V26.624C88.4276 26.456 88.4676 26.328 88.5476 26.24C88.6276 26.152 88.7476 26.108 88.9076 26.108C89.0596 26.108 89.1796 26.152 89.2676 26.24C89.3556 26.328 89.3996 26.456 89.3996 26.624V31.532C89.3996 31.7 89.3556 31.832 89.2676 31.928C89.1876 32.016 89.0676 32.06 88.9076 32.06ZM88.9076 24.764C88.7076 24.764 88.5516 24.712 88.4396 24.608C88.3276 24.496 88.2716 24.348 88.2716 24.164C88.2716 23.972 88.3276 23.828 88.4396 23.732C88.5516 23.628 88.7076 23.576 88.9076 23.576C89.1156 23.576 89.2716 23.628 89.3756 23.732C89.4876 23.828 89.5436 23.972 89.5436 24.164C89.5436 24.348 89.4876 24.496 89.3756 24.608C89.2716 24.712 89.1156 24.764 88.9076 24.764ZM93.0527 32.108C92.6527 32.108 92.2927 32.032 91.9727 31.88C91.6607 31.72 91.4127 31.504 91.2287 31.232C91.0447 30.96 90.9527 30.656 90.9527 30.32C90.9527 29.888 91.0607 29.548 91.2767 29.3C91.5007 29.052 91.8647 28.876 92.3687 28.772C92.8807 28.668 93.5767 28.616 94.4567 28.616H94.9967V29.252H94.4687C93.8207 29.252 93.3087 29.284 92.9327 29.348C92.5647 29.404 92.3047 29.504 92.1527 29.648C92.0087 29.792 91.9367 29.996 91.9367 30.26C91.9367 30.588 92.0487 30.856 92.2727 31.064C92.5047 31.272 92.8167 31.376 93.2087 31.376C93.5287 31.376 93.8087 31.3 94.0487 31.148C94.2967 30.996 94.4887 30.788 94.6247 30.524C94.7687 30.26 94.8407 29.956 94.8407 29.612V28.244C94.8407 27.748 94.7407 27.392 94.5407 27.176C94.3407 26.952 94.0127 26.84 93.5567 26.84C93.2767 26.84 92.9967 26.876 92.7167 26.948C92.4367 27.02 92.1407 27.136 91.8287 27.296C91.7167 27.352 91.6207 27.372 91.5407 27.356C91.4607 27.332 91.3967 27.288 91.3487 27.224C91.3007 27.16 91.2727 27.088 91.2647 27.008C91.2567 26.92 91.2727 26.836 91.3127 26.756C91.3607 26.676 91.4327 26.612 91.5287 26.564C91.8807 26.388 92.2287 26.26 92.5727 26.18C92.9167 26.1 93.2447 26.06 93.5567 26.06C94.0607 26.06 94.4767 26.144 94.8047 26.312C95.1327 26.472 95.3767 26.72 95.5367 27.056C95.6967 27.384 95.7767 27.808 95.7767 28.328V31.58C95.7767 31.74 95.7367 31.864 95.6567 31.952C95.5847 32.04 95.4767 32.084 95.3327 32.084C95.1807 32.084 95.0647 32.04 94.9847 31.952C94.9047 31.864 94.8647 31.74 94.8647 31.58V30.644H94.9727C94.9087 30.948 94.7847 31.208 94.6007 31.424C94.4247 31.64 94.2047 31.808 93.9407 31.928C93.6767 32.048 93.3807 32.108 93.0527 32.108ZM101.298 32.084C101.138 32.084 101.014 32.04 100.926 31.952C100.846 31.856 100.806 31.728 100.806 31.568V23.972C100.806 23.804 100.846 23.676 100.926 23.588C101.014 23.5 101.138 23.456 101.298 23.456C101.458 23.456 101.578 23.5 101.658 23.588C101.746 23.676 101.79 23.804 101.79 23.972V31.568C101.79 31.728 101.75 31.856 101.67 31.952C101.59 32.04 101.466 32.084 101.298 32.084ZM105.532 32.108C104.956 32.108 104.516 31.932 104.212 31.58C103.908 31.228 103.756 30.724 103.756 30.068V23.948C103.756 23.788 103.796 23.668 103.876 23.588C103.956 23.5 104.076 23.456 104.236 23.456C104.388 23.456 104.508 23.5 104.596 23.588C104.684 23.668 104.728 23.788 104.728 23.948V29.996C104.728 30.428 104.812 30.752 104.98 30.968C105.156 31.176 105.412 31.28 105.748 31.28C105.82 31.28 105.884 31.276 105.94 31.268C105.996 31.26 106.052 31.256 106.108 31.256C106.196 31.248 106.256 31.268 106.288 31.316C106.328 31.364 106.348 31.46 106.348 31.604C106.348 31.748 106.316 31.856 106.252 31.928C106.188 32 106.084 32.048 105.94 32.072C105.876 32.08 105.808 32.088 105.736 32.096C105.664 32.104 105.596 32.108 105.532 32.108ZM107.787 32.06C107.627 32.06 107.507 32.016 107.427 31.928C107.347 31.832 107.307 31.7 107.307 31.532V26.624C107.307 26.456 107.347 26.328 107.427 26.24C107.507 26.152 107.627 26.108 107.787 26.108C107.939 26.108 108.059 26.152 108.147 26.24C108.235 26.328 108.279 26.456 108.279 26.624V31.532C108.279 31.7 108.235 31.832 108.147 31.928C108.067 32.016 107.947 32.06 107.787 32.06ZM107.787 24.764C107.587 24.764 107.431 24.712 107.319 24.608C107.207 24.496 107.151 24.348 107.151 24.164C107.151 23.972 107.207 23.828 107.319 23.732C107.431 23.628 107.587 23.576 107.787 23.576C107.995 23.576 108.151 23.628 108.255 23.732C108.367 23.828 108.423 23.972 108.423 24.164C108.423 24.348 108.367 24.496 108.255 24.608C108.151 24.712 107.995 24.764 107.787 24.764ZM110.576 32.084C110.416 32.084 110.296 32.04 110.216 31.952C110.136 31.864 110.096 31.74 110.096 31.58V26.576C110.096 26.416 110.136 26.296 110.216 26.216C110.296 26.128 110.412 26.084 110.564 26.084C110.716 26.084 110.832 26.128 110.912 26.216C111 26.296 111.044 26.416 111.044 26.576V27.608L110.912 27.464C111.08 27 111.352 26.652 111.728 26.42C112.112 26.18 112.552 26.06 113.048 26.06C113.512 26.06 113.896 26.144 114.2 26.312C114.512 26.48 114.744 26.736 114.896 27.08C115.048 27.416 115.124 27.844 115.124 28.364V31.58C115.124 31.74 115.08 31.864 114.992 31.952C114.912 32.04 114.796 32.084 114.644 32.084C114.484 32.084 114.36 32.04 114.272 31.952C114.192 31.864 114.152 31.74 114.152 31.58V28.424C114.152 27.88 114.044 27.484 113.828 27.236C113.62 26.98 113.284 26.852 112.82 26.852C112.284 26.852 111.856 27.02 111.536 27.356C111.224 27.684 111.068 28.124 111.068 28.676V31.58C111.068 31.916 110.904 32.084 110.576 32.084ZM118.752 32.108C118.352 32.108 117.992 32.032 117.672 31.88C117.36 31.72 117.112 31.504 116.928 31.232C116.744 30.96 116.652 30.656 116.652 30.32C116.652 29.888 116.76 29.548 116.976 29.3C117.2 29.052 117.564 28.876 118.068 28.772C118.58 28.668 119.276 28.616 120.156 28.616H120.696V29.252H120.168C119.52 29.252 119.008 29.284 118.632 29.348C118.264 29.404 118.004 29.504 117.852 29.648C117.708 29.792 117.636 29.996 117.636 30.26C117.636 30.588 117.748 30.856 117.972 31.064C118.204 31.272 118.516 31.376 118.908 31.376C119.228 31.376 119.508 31.3 119.748 31.148C119.996 30.996 120.188 30.788 120.324 30.524C120.468 30.26 120.54 29.956 120.54 29.612V28.244C120.54 27.748 120.44 27.392 120.24 27.176C120.04 26.952 119.712 26.84 119.256 26.84C118.976 26.84 118.696 26.876 118.416 26.948C118.136 27.02 117.84 27.136 117.528 27.296C117.416 27.352 117.32 27.372 117.24 27.356C117.16 27.332 117.096 27.288 117.048 27.224C117 27.16 116.972 27.088 116.964 27.008C116.956 26.92 116.972 26.836 117.012 26.756C117.06 26.676 117.132 26.612 117.228 26.564C117.58 26.388 117.928 26.26 118.272 26.18C118.616 26.1 118.944 26.06 119.256 26.06C119.76 26.06 120.176 26.144 120.504 26.312C120.832 26.472 121.076 26.72 121.236 27.056C121.396 27.384 121.476 27.808 121.476 28.328V31.58C121.476 31.74 121.436 31.864 121.356 31.952C121.284 32.04 121.176 32.084 121.032 32.084C120.88 32.084 120.764 32.04 120.684 31.952C120.604 31.864 120.564 31.74 120.564 31.58V30.644H120.672C120.608 30.948 120.484 31.208 120.3 31.424C120.124 31.64 119.904 31.808 119.64 31.928C119.376 32.048 119.08 32.108 118.752 32.108Z" fill="black"/>
</svg>
