<svg width="167" height="24" viewBox="0 0 167 24" fill="none" xmlns="http://www.w3.org/2000/svg">
<g clip-path="url(#clip0_57_2455)">
<path d="M20.01 15.38C18.78 15.38 17.59 15.18 16.48 14.82C16.13 14.7 15.74 14.79 15.47 15.06L13.9 17.03C11.07 15.68 8.42 13.13 7.01 10.2L8.96 8.54C9.23 8.26 9.31 7.87 9.2 7.52C8.83 6.41 8.64 5.22 8.64 3.99C8.64 3.45 8.19 3 7.65 3H4.19C3.65 3 3 3.24 3 3.99C3 13.28 10.73 21 20.01 21C20.72 21 21 20.37 21 19.82V16.37C21 15.83 20.55 15.38 20.01 15.38Z" fill="black"/>
</g>
<path d="M32.8 16.972C32.6293 16.972 32.5013 16.924 32.416 16.828C32.3307 16.732 32.288 16.604 32.288 16.444V13.404H29.296C29.136 13.404 29.008 13.3613 28.912 13.276C28.8267 13.1907 28.784 13.068 28.784 12.908C28.784 12.748 28.8267 12.6253 28.912 12.54C29.008 12.4547 29.136 12.412 29.296 12.412H32.288V9.468C32.288 9.29733 32.3307 9.16933 32.416 9.084C32.5013 8.988 32.6293 8.94 32.8 8.94C32.9707 8.94 33.0987 8.988 33.184 9.084C33.2693 9.16933 33.312 9.29733 33.312 9.468V12.412H36.304C36.464 12.412 36.5867 12.4547 36.672 12.54C36.768 12.6253 36.816 12.748 36.816 12.908C36.816 13.068 36.768 13.1907 36.672 13.276C36.5867 13.3613 36.464 13.404 36.304 13.404H33.312V16.444C33.312 16.604 33.2693 16.732 33.184 16.828C33.0987 16.924 32.9707 16.972 32.8 16.972ZM40.2818 17.612C40.1324 17.612 40.0044 17.5747 39.8978 17.5C39.7911 17.4253 39.7218 17.324 39.6898 17.196C39.6684 17.0573 39.7004 16.908 39.7858 16.748L44.9218 6.78V7.356H39.1618C38.9698 7.356 38.8204 7.308 38.7138 7.212C38.6071 7.10533 38.5538 6.96133 38.5538 6.78C38.5538 6.59867 38.6071 6.46 38.7138 6.364C38.8204 6.268 38.9698 6.22 39.1618 6.22H45.5138C45.7058 6.22 45.8604 6.268 45.9778 6.364C46.0951 6.46 46.1538 6.59867 46.1538 6.78C46.1538 6.92933 46.1324 7.06267 46.0898 7.18C46.0578 7.28667 46.0098 7.40933 45.9458 7.548L41.0178 17.164C40.9431 17.3133 40.8471 17.4253 40.7298 17.5C40.6124 17.5747 40.4631 17.612 40.2818 17.612ZM50.5475 20.204C49.9502 19.1053 49.5128 17.98 49.2355 16.828C48.9582 15.6653 48.8195 14.4867 48.8195 13.292C48.8195 12.492 48.8782 11.7027 48.9955 10.924C49.1235 10.1453 49.3155 9.37733 49.5715 8.62C49.8275 7.86267 50.1528 7.116 50.5475 6.38C50.6222 6.24133 50.7235 6.156 50.8515 6.124C50.9902 6.092 51.1182 6.10267 51.2355 6.156C51.3635 6.19867 51.4542 6.28933 51.5075 6.428C51.5608 6.556 51.5502 6.72133 51.4755 6.924C51.1982 7.628 50.9635 8.332 50.7715 9.036C50.5795 9.74 50.4355 10.444 50.3395 11.148C50.2435 11.852 50.1955 12.5667 50.1955 13.292C50.1955 14.0173 50.2435 14.732 50.3395 15.436C50.4462 16.14 50.5955 16.8387 50.7875 17.532C50.9795 18.236 51.2088 18.9453 51.4755 19.66C51.5608 19.8627 51.5715 20.028 51.5075 20.156C51.4542 20.2947 51.3635 20.3853 51.2355 20.428C51.1182 20.4813 50.9902 20.492 50.8515 20.46C50.7235 20.428 50.6222 20.3427 50.5475 20.204ZM56.2816 17.644C55.8016 17.644 55.3003 17.548 54.7776 17.356C54.255 17.164 53.7963 16.8867 53.4016 16.524C53.2843 16.4387 53.2096 16.3373 53.1776 16.22C53.1563 16.1027 53.1616 15.9907 53.1936 15.884C53.2256 15.7667 53.279 15.6707 53.3536 15.596C53.439 15.5107 53.5403 15.468 53.6576 15.468C53.775 15.4573 53.8976 15.5 54.0256 15.596C54.3883 15.9053 54.7616 16.1293 55.1456 16.268C55.5296 16.4067 55.919 16.476 56.3136 16.476C57.007 16.476 57.5936 16.3053 58.0736 15.964C58.5643 15.6227 58.9323 15.1053 59.1776 14.412C59.4336 13.7187 59.5616 12.86 59.5616 11.836V10.348H59.7056C59.6416 10.9453 59.4603 11.468 59.1616 11.916C58.8736 12.364 58.5003 12.7053 58.0416 12.94C57.583 13.1747 57.0656 13.292 56.4896 13.292C55.8283 13.292 55.2416 13.1427 54.7296 12.844C54.2176 12.5453 53.8176 12.124 53.5296 11.58C53.2416 11.036 53.0976 10.4227 53.0976 9.74C53.0976 9.02533 53.247 8.396 53.5456 7.852C53.855 7.29733 54.2763 6.86533 54.8096 6.556C55.3536 6.236 55.9776 6.076 56.6816 6.076C57.567 6.076 58.319 6.29467 58.9376 6.732C59.567 7.15867 60.0416 7.78267 60.3616 8.604C60.6816 9.42533 60.8416 10.4173 60.8416 11.58C60.8416 12.5613 60.7403 13.4253 60.5376 14.172C60.335 14.9187 60.0363 15.5533 59.6416 16.076C59.247 16.588 58.767 16.9773 58.2016 17.244C57.6363 17.5107 56.9963 17.644 56.2816 17.644ZM56.7616 12.188C57.2416 12.188 57.663 12.0813 58.0256 11.868C58.3883 11.6547 58.671 11.3613 58.8736 10.988C59.0763 10.604 59.1776 10.1667 59.1776 9.676C59.1776 9.18533 59.0763 8.75333 58.8736 8.38C58.671 8.00667 58.3883 7.71333 58.0256 7.5C57.663 7.28667 57.2416 7.18 56.7616 7.18C56.2923 7.18 55.8763 7.28667 55.5136 7.5C55.1616 7.71333 54.879 8.00667 54.6656 8.38C54.463 8.75333 54.3616 9.18533 54.3616 9.676C54.3616 10.1667 54.463 10.604 54.6656 10.988C54.879 11.3613 55.1616 11.6547 55.5136 11.868C55.8763 12.0813 56.2923 12.188 56.7616 12.188ZM66.5314 17.644C65.9127 17.644 65.2887 17.5533 64.6594 17.372C64.0407 17.1907 63.502 16.924 63.0434 16.572C62.9047 16.476 62.814 16.3693 62.7714 16.252C62.7287 16.124 62.718 16.0067 62.7394 15.9C62.7714 15.7827 62.83 15.6867 62.9154 15.612C63.0007 15.5267 63.102 15.4787 63.2194 15.468C63.3474 15.4573 63.486 15.5 63.6354 15.596C64.1047 15.9053 64.574 16.1293 65.0434 16.268C65.5127 16.4067 65.998 16.476 66.4994 16.476C67.0434 16.476 67.502 16.396 67.8754 16.236C68.2487 16.076 68.5314 15.8413 68.7234 15.532C68.9154 15.212 69.0114 14.8227 69.0114 14.364C69.0114 13.7027 68.7927 13.2013 68.3554 12.86C67.918 12.5187 67.2834 12.348 66.4514 12.348H65.3154C65.1127 12.348 64.958 12.3 64.8514 12.204C64.7447 12.0973 64.6914 11.9533 64.6914 11.772C64.6914 11.6013 64.7447 11.468 64.8514 11.372C64.958 11.2653 65.1127 11.212 65.3154 11.212H66.3394C66.83 11.212 67.246 11.1267 67.5874 10.956C67.9394 10.7853 68.2114 10.5453 68.4034 10.236C68.5954 9.916 68.6914 9.532 68.6914 9.084C68.6914 8.48667 68.4994 8.03333 68.1154 7.724C67.7314 7.404 67.1767 7.244 66.4514 7.244C65.9714 7.244 65.518 7.31333 65.0914 7.452C64.6647 7.59067 64.2434 7.82533 63.8274 8.156C63.6994 8.252 63.5714 8.3 63.4434 8.3C63.326 8.28933 63.2247 8.252 63.1394 8.188C63.0647 8.11333 63.006 8.01733 62.9634 7.9C62.9314 7.78267 62.9367 7.66533 62.9794 7.548C63.022 7.42 63.1127 7.30267 63.2514 7.196C63.678 6.83333 64.1794 6.556 64.7554 6.364C65.3314 6.172 65.9234 6.076 66.5314 6.076C67.2567 6.076 67.8754 6.19333 68.3874 6.428C68.91 6.652 69.31 6.98267 69.5874 7.42C69.8647 7.84667 70.0034 8.364 70.0034 8.972C70.0034 9.43067 69.9127 9.852 69.7314 10.236C69.5607 10.6093 69.3154 10.9293 68.9954 11.196C68.686 11.4627 68.3074 11.6547 67.8594 11.772V11.596C68.638 11.724 69.2407 12.044 69.6674 12.556C70.1047 13.0573 70.3234 13.692 70.3234 14.46C70.3234 15.1107 70.1687 15.676 69.8594 16.156C69.5607 16.6253 69.1287 16.9933 68.5634 17.26C67.998 17.516 67.3207 17.644 66.5314 17.644ZM76.2531 17.644C74.9625 17.644 73.9811 17.148 73.3091 16.156C72.6371 15.164 72.3011 13.7293 72.3011 11.852C72.3011 10.5933 72.4505 9.53733 72.7491 8.684C73.0478 7.82 73.4905 7.16933 74.0771 6.732C74.6745 6.29467 75.3998 6.076 76.2531 6.076C77.5545 6.076 78.5358 6.56667 79.1971 7.548C79.8691 8.51867 80.2051 9.948 80.2051 11.836C80.2051 13.0947 80.0558 14.156 79.7571 15.02C79.4585 15.884 79.0158 16.54 78.4291 16.988C77.8425 17.4253 77.1171 17.644 76.2531 17.644ZM76.2531 16.508C77.1491 16.508 77.8105 16.1293 78.2371 15.372C78.6745 14.604 78.8931 13.4253 78.8931 11.836C78.8931 10.236 78.6745 9.068 78.2371 8.332C77.8105 7.58533 77.1491 7.212 76.2531 7.212C75.3678 7.212 74.7065 7.58533 74.2691 8.332C73.8318 9.07867 73.6131 10.2467 73.6131 11.836C73.6131 13.4253 73.8318 14.604 74.2691 15.372C74.7065 16.1293 75.3678 16.508 76.2531 16.508ZM82.7749 20.204C82.6895 20.3427 82.5829 20.428 82.4549 20.46C82.3269 20.492 82.1989 20.4813 82.0709 20.428C81.9429 20.3747 81.8522 20.284 81.7989 20.156C81.7455 20.028 81.7562 19.8627 81.8309 19.66C82.1189 18.9453 82.3535 18.236 82.5349 17.532C82.7269 16.8387 82.8709 16.14 82.9669 15.436C83.0629 14.732 83.1109 14.0173 83.1109 13.292C83.1109 12.5667 83.0575 11.852 82.9509 11.148C82.8549 10.444 82.7109 9.74533 82.5189 9.052C82.3375 8.348 82.1082 7.63867 81.8309 6.924C81.7562 6.72133 81.7455 6.556 81.7989 6.428C81.8629 6.28933 81.9535 6.19867 82.0709 6.156C82.1882 6.10267 82.3109 6.092 82.4389 6.124C82.5775 6.156 82.6895 6.24133 82.7749 6.38C83.3615 7.468 83.7935 8.59333 84.0709 9.756C84.3482 10.9187 84.4869 12.0973 84.4869 13.292C84.4869 14.092 84.4229 14.8867 84.2949 15.676C84.1775 16.4547 83.9909 17.2227 83.7349 17.98C83.4895 18.7373 83.1695 19.4787 82.7749 20.204ZM90.925 17.644C90.0823 17.644 89.357 17.5213 88.749 17.276C88.1517 17.0307 87.693 16.6733 87.373 16.204C87.0637 15.7347 86.909 15.1693 86.909 14.508C86.909 13.9853 87.0157 13.5213 87.229 13.116C87.4423 12.7 87.741 12.364 88.125 12.108C88.509 11.852 88.9517 11.692 89.453 11.628V11.868C88.7597 11.7187 88.205 11.3933 87.789 10.892C87.3837 10.38 87.181 9.77733 87.181 9.084C87.181 8.444 87.3303 7.90533 87.629 7.468C87.9383 7.02 88.3757 6.67867 88.941 6.444C89.5063 6.19867 90.1677 6.076 90.925 6.076C91.693 6.076 92.3543 6.19867 92.909 6.444C93.4743 6.67867 93.9117 7.02 94.221 7.468C94.5303 7.90533 94.685 8.444 94.685 9.084C94.685 9.54267 94.589 9.96933 94.397 10.364C94.2157 10.748 93.9543 11.068 93.613 11.324C93.2717 11.58 92.8717 11.756 92.413 11.852V11.628C93.1703 11.7347 93.7783 12.0493 94.237 12.572C94.7063 13.084 94.941 13.7293 94.941 14.508C94.941 15.1693 94.781 15.7347 94.461 16.204C94.1517 16.6733 93.693 17.0307 93.085 17.276C92.4877 17.5213 91.7677 17.644 90.925 17.644ZM90.925 16.556C91.8317 16.556 92.5143 16.38 92.973 16.028C93.4423 15.676 93.677 15.1427 93.677 14.428C93.677 13.724 93.4423 13.2013 92.973 12.86C92.5143 12.508 91.8317 12.332 90.925 12.332C90.029 12.332 89.3463 12.508 88.877 12.86C88.4077 13.2013 88.173 13.724 88.173 14.428C88.173 15.1427 88.4077 15.676 88.877 16.028C89.3463 16.38 90.029 16.556 90.925 16.556ZM90.925 11.244C91.4477 11.244 91.8903 11.164 92.253 11.004C92.6263 10.8333 92.9143 10.5933 93.117 10.284C93.3197 9.97467 93.421 9.612 93.421 9.196C93.421 8.556 93.197 8.06 92.749 7.708C92.3117 7.34533 91.7037 7.164 90.925 7.164C90.1463 7.164 89.5383 7.34533 89.101 7.708C88.6637 8.06 88.445 8.556 88.445 9.196C88.445 9.836 88.6637 10.3373 89.101 10.7C89.5383 11.0627 90.1463 11.244 90.925 11.244ZM100.391 17.644C99.7721 17.644 99.1481 17.5533 98.5188 17.372C97.9001 17.1907 97.3614 16.924 96.9028 16.572C96.7641 16.476 96.6734 16.3693 96.6308 16.252C96.5881 16.124 96.5774 16.0067 96.5988 15.9C96.6308 15.7827 96.6894 15.6867 96.7747 15.612C96.8601 15.5267 96.9614 15.4787 97.0788 15.468C97.2068 15.4573 97.3454 15.5 97.4948 15.596C97.9641 15.9053 98.4334 16.1293 98.9028 16.268C99.3721 16.4067 99.8574 16.476 100.359 16.476C100.903 16.476 101.361 16.396 101.735 16.236C102.108 16.076 102.391 15.8413 102.583 15.532C102.775 15.212 102.871 14.8227 102.871 14.364C102.871 13.7027 102.652 13.2013 102.215 12.86C101.777 12.5187 101.143 12.348 100.311 12.348H99.1748C98.9721 12.348 98.8174 12.3 98.7108 12.204C98.6041 12.0973 98.5508 11.9533 98.5508 11.772C98.5508 11.6013 98.6041 11.468 98.7108 11.372C98.8174 11.2653 98.9721 11.212 99.1748 11.212H100.199C100.689 11.212 101.105 11.1267 101.447 10.956C101.799 10.7853 102.071 10.5453 102.263 10.236C102.455 9.916 102.551 9.532 102.551 9.084C102.551 8.48667 102.359 8.03333 101.975 7.724C101.591 7.404 101.036 7.244 100.311 7.244C99.8308 7.244 99.3774 7.31333 98.9508 7.452C98.5241 7.59067 98.1028 7.82533 97.6868 8.156C97.5588 8.252 97.4308 8.3 97.3028 8.3C97.1854 8.28933 97.0841 8.252 96.9988 8.188C96.9241 8.11333 96.8654 8.01733 96.8228 7.9C96.7908 7.78267 96.7961 7.66533 96.8388 7.548C96.8814 7.42 96.9721 7.30267 97.1108 7.196C97.5374 6.83333 98.0388 6.556 98.6148 6.364C99.1908 6.172 99.7828 6.076 100.391 6.076C101.116 6.076 101.735 6.19333 102.247 6.428C102.769 6.652 103.169 6.98267 103.447 7.42C103.724 7.84667 103.863 8.364 103.863 8.972C103.863 9.43067 103.772 9.852 103.591 10.236C103.42 10.6093 103.175 10.9293 102.855 11.196C102.545 11.4627 102.167 11.6547 101.719 11.772V11.596C102.497 11.724 103.1 12.044 103.527 12.556C103.964 13.0573 104.183 13.692 104.183 14.46C104.183 15.1107 104.028 15.676 103.719 16.156C103.42 16.6253 102.988 16.9933 102.423 17.26C101.857 17.516 101.18 17.644 100.391 17.644ZM109.985 17.644C109.366 17.644 108.742 17.5533 108.113 17.372C107.494 17.1907 106.955 16.924 106.497 16.572C106.358 16.476 106.267 16.3693 106.225 16.252C106.182 16.124 106.171 16.0067 106.193 15.9C106.225 15.7827 106.283 15.6867 106.368 15.612C106.454 15.5267 106.555 15.4787 106.673 15.468C106.801 15.4573 106.939 15.5 107.089 15.596C107.558 15.9053 108.027 16.1293 108.497 16.268C108.966 16.4067 109.451 16.476 109.953 16.476C110.497 16.476 110.955 16.396 111.329 16.236C111.702 16.076 111.985 15.8413 112.177 15.532C112.369 15.212 112.465 14.8227 112.465 14.364C112.465 13.7027 112.246 13.2013 111.809 12.86C111.371 12.5187 110.737 12.348 109.905 12.348H108.769C108.566 12.348 108.411 12.3 108.305 12.204C108.198 12.0973 108.145 11.9533 108.145 11.772C108.145 11.6013 108.198 11.468 108.305 11.372C108.411 11.2653 108.566 11.212 108.769 11.212H109.793C110.283 11.212 110.699 11.1267 111.041 10.956C111.393 10.7853 111.665 10.5453 111.857 10.236C112.049 9.916 112.145 9.532 112.145 9.084C112.145 8.48667 111.953 8.03333 111.569 7.724C111.185 7.404 110.63 7.244 109.905 7.244C109.425 7.244 108.971 7.31333 108.545 7.452C108.118 7.59067 107.697 7.82533 107.281 8.156C107.153 8.252 107.025 8.3 106.897 8.3C106.779 8.28933 106.678 8.252 106.593 8.188C106.518 8.11333 106.459 8.01733 106.417 7.9C106.385 7.78267 106.39 7.66533 106.433 7.548C106.475 7.42 106.566 7.30267 106.705 7.196C107.131 6.83333 107.633 6.556 108.209 6.364C108.785 6.172 109.377 6.076 109.985 6.076C110.71 6.076 111.329 6.19333 111.841 6.428C112.363 6.652 112.763 6.98267 113.041 7.42C113.318 7.84667 113.457 8.364 113.457 8.972C113.457 9.43067 113.366 9.852 113.185 10.236C113.014 10.6093 112.769 10.9293 112.449 11.196C112.139 11.4627 111.761 11.6547 111.313 11.772V11.596C112.091 11.724 112.694 12.044 113.121 12.556C113.558 13.0573 113.777 13.692 113.777 14.46C113.777 15.1107 113.622 15.676 113.312 16.156C113.014 16.6253 112.582 16.9933 112.017 17.26C111.451 17.516 110.774 17.644 109.985 17.644ZM116.506 13.772C116.346 13.772 116.213 13.724 116.106 13.628C116 13.5213 115.946 13.3933 115.946 13.244C115.946 13.084 116 12.956 116.106 12.86C116.213 12.7533 116.346 12.7 116.506 12.7H120.106C120.256 12.7 120.384 12.7533 120.49 12.86C120.597 12.956 120.65 13.084 120.65 13.244C120.65 13.3933 120.597 13.5213 120.49 13.628C120.384 13.724 120.256 13.772 120.106 13.772H116.506ZM126.36 17.644C125.741 17.644 125.117 17.5533 124.488 17.372C123.869 17.1907 123.33 16.924 122.872 16.572C122.733 16.476 122.642 16.3693 122.6 16.252C122.557 16.124 122.546 16.0067 122.568 15.9C122.6 15.7827 122.658 15.6867 122.743 15.612C122.829 15.5267 122.93 15.4787 123.048 15.468C123.176 15.4573 123.314 15.5 123.464 15.596C123.933 15.9053 124.402 16.1293 124.872 16.268C125.341 16.4067 125.826 16.476 126.328 16.476C126.872 16.476 127.33 16.396 127.704 16.236C128.077 16.076 128.36 15.8413 128.552 15.532C128.744 15.212 128.84 14.8227 128.84 14.364C128.84 13.7027 128.621 13.2013 128.184 12.86C127.746 12.5187 127.112 12.348 126.28 12.348H125.144C124.941 12.348 124.786 12.3 124.68 12.204C124.573 12.0973 124.52 11.9533 124.52 11.772C124.52 11.6013 124.573 11.468 124.68 11.372C124.786 11.2653 124.941 11.212 125.144 11.212H126.168C126.658 11.212 127.074 11.1267 127.416 10.956C127.768 10.7853 128.04 10.5453 128.232 10.236C128.424 9.916 128.52 9.532 128.52 9.084C128.52 8.48667 128.328 8.03333 127.944 7.724C127.56 7.404 127.005 7.244 126.28 7.244C125.8 7.244 125.346 7.31333 124.92 7.452C124.493 7.59067 124.072 7.82533 123.656 8.156C123.528 8.252 123.4 8.3 123.272 8.3C123.154 8.28933 123.053 8.252 122.968 8.188C122.893 8.11333 122.834 8.01733 122.792 7.9C122.76 7.78267 122.765 7.66533 122.808 7.548C122.85 7.42 122.941 7.30267 123.08 7.196C123.506 6.83333 124.008 6.556 124.584 6.364C125.16 6.172 125.752 6.076 126.36 6.076C127.085 6.076 127.704 6.19333 128.216 6.428C128.738 6.652 129.138 6.98267 129.416 7.42C129.693 7.84667 129.832 8.364 129.832 8.972C129.832 9.43067 129.741 9.852 129.56 10.236C129.389 10.6093 129.144 10.9293 128.824 11.196C128.514 11.4627 128.136 11.6547 127.688 11.772V11.596C128.466 11.724 129.069 12.044 129.496 12.556C129.933 13.0573 130.152 13.692 130.152 14.46C130.152 15.1107 129.997 15.676 129.688 16.156C129.389 16.6253 128.957 16.9933 128.392 17.26C127.826 17.516 127.149 17.644 126.36 17.644ZM136.081 17.644C135.239 17.644 134.513 17.5213 133.905 17.276C133.308 17.0307 132.849 16.6733 132.529 16.204C132.22 15.7347 132.065 15.1693 132.065 14.508C132.065 13.9853 132.172 13.5213 132.385 13.116C132.599 12.7 132.897 12.364 133.281 12.108C133.665 11.852 134.108 11.692 134.609 11.628V11.868C133.916 11.7187 133.361 11.3933 132.945 10.892C132.54 10.38 132.337 9.77733 132.337 9.084C132.337 8.444 132.487 7.90533 132.785 7.468C133.095 7.02 133.532 6.67867 134.097 6.444C134.663 6.19867 135.324 6.076 136.081 6.076C136.849 6.076 137.511 6.19867 138.065 6.444C138.631 6.67867 139.068 7.02 139.377 7.468C139.687 7.90533 139.841 8.444 139.841 9.084C139.841 9.54267 139.745 9.96933 139.553 10.364C139.372 10.748 139.111 11.068 138.769 11.324C138.428 11.58 138.028 11.756 137.569 11.852V11.628C138.327 11.7347 138.935 12.0493 139.393 12.572C139.863 13.084 140.097 13.7293 140.097 14.508C140.097 15.1693 139.937 15.7347 139.617 16.204C139.308 16.6733 138.849 17.0307 138.241 17.276C137.644 17.5213 136.924 17.644 136.081 17.644ZM136.081 16.556C136.988 16.556 137.671 16.38 138.129 16.028C138.599 15.676 138.833 15.1427 138.833 14.428C138.833 13.724 138.599 13.2013 138.129 12.86C137.671 12.508 136.988 12.332 136.081 12.332C135.185 12.332 134.503 12.508 134.033 12.86C133.564 13.2013 133.329 13.724 133.329 14.428C133.329 15.1427 133.564 15.676 134.033 16.028C134.503 16.38 135.185 16.556 136.081 16.556ZM136.081 11.244C136.604 11.244 137.047 11.164 137.409 11.004C137.783 10.8333 138.071 10.5933 138.273 10.284C138.476 9.97467 138.577 9.612 138.577 9.196C138.577 8.556 138.353 8.06 137.905 7.708C137.468 7.34533 136.86 7.164 136.081 7.164C135.303 7.164 134.695 7.34533 134.257 7.708C133.82 8.06 133.601 8.556 133.601 9.196C133.601 9.836 133.82 10.3373 134.257 10.7C134.695 11.0627 135.303 11.244 136.081 11.244ZM142.475 13.772C142.315 13.772 142.182 13.724 142.075 13.628C141.968 13.5213 141.915 13.3933 141.915 13.244C141.915 13.084 141.968 12.956 142.075 12.86C142.182 12.7533 142.315 12.7 142.475 12.7H146.075C146.224 12.7 146.352 12.7533 146.459 12.86C146.566 12.956 146.619 13.084 146.619 13.244C146.619 13.3933 146.566 13.5213 146.459 13.628C146.352 13.724 146.224 13.772 146.075 13.772H142.475ZM150.136 17.5C149.944 17.5 149.795 17.452 149.688 17.356C149.582 17.2493 149.528 17.1053 149.528 16.924C149.528 16.7427 149.582 16.6093 149.688 16.524C149.795 16.428 149.944 16.38 150.136 16.38H152.216V7.308H152.904L150.584 8.844C150.446 8.91867 150.312 8.95067 150.184 8.94C150.067 8.92933 149.966 8.88667 149.88 8.812C149.806 8.72667 149.752 8.63067 149.72 8.524C149.688 8.40667 149.694 8.28933 149.736 8.172C149.779 8.044 149.87 7.93733 150.008 7.852L152.216 6.396C152.355 6.31067 152.488 6.24133 152.616 6.188C152.744 6.13467 152.872 6.108 153 6.108C153.15 6.108 153.272 6.156 153.368 6.252C153.475 6.33733 153.528 6.476 153.528 6.668V16.38H155.448C155.64 16.38 155.79 16.428 155.896 16.524C156.003 16.6093 156.056 16.7427 156.056 16.924C156.056 17.116 156.003 17.26 155.896 17.356C155.79 17.452 155.64 17.5 155.448 17.5H150.136ZM159.73 17.5C159.538 17.5 159.389 17.452 159.282 17.356C159.175 17.2493 159.122 17.1053 159.122 16.924C159.122 16.7427 159.175 16.6093 159.282 16.524C159.389 16.428 159.538 16.38 159.73 16.38H161.81V7.308H162.498L160.178 8.844C160.039 8.91867 159.906 8.95067 159.778 8.94C159.661 8.92933 159.559 8.88667 159.474 8.812C159.399 8.72667 159.346 8.63067 159.314 8.524C159.282 8.40667 159.287 8.28933 159.33 8.172C159.373 8.044 159.463 7.93733 159.602 7.852L161.81 6.396C161.949 6.31067 162.082 6.24133 162.21 6.188C162.338 6.13467 162.466 6.108 162.594 6.108C162.743 6.108 162.866 6.156 162.962 6.252C163.069 6.33733 163.122 6.476 163.122 6.668V16.38H165.042C165.234 16.38 165.383 16.428 165.49 16.524C165.597 16.6093 165.65 16.7427 165.65 16.924C165.65 17.116 165.597 17.26 165.49 17.356C165.383 17.452 165.234 17.5 165.042 17.5H159.73Z" fill="black"/>
<defs>
<clipPath id="clip0_57_2455">
<rect width="24" height="24" fill="white"/>
</clipPath>
</defs>
</svg>
