<svg width="36" height="36" viewBox="0 0 36 36" fill="none" xmlns="http://www.w3.org/2000/svg">
<g clip-path="url(#clip0_57_2464)">
<path d="M18 0C8.05875 0 0 8.05875 0 18C0 27.9412 8.05875 36 18 36C27.9412 36 36 27.9412 36 18C36 8.05875 27.9412 0 18 0ZM24.9225 20.3081C24.9225 20.3081 26.5144 21.8794 26.9062 22.6087C26.9175 22.6237 26.9231 22.6387 26.9269 22.6462C27.0862 22.9144 27.1237 23.1225 27.045 23.2781C26.9137 23.5369 26.4637 23.6644 26.31 23.6756H23.4975C23.3025 23.6756 22.8937 23.625 22.3987 23.2837C22.0181 23.0175 21.6431 22.5806 21.2775 22.155C20.7319 21.5212 20.2594 20.9738 19.7831 20.9738C19.7226 20.9736 19.6625 20.9831 19.605 21.0019C19.245 21.1181 18.7838 21.6319 18.7838 23.0006C18.7838 23.4281 18.4462 23.6737 18.2081 23.6737H16.92C16.4812 23.6737 14.1956 23.52 12.1706 21.3844C9.69187 18.7687 7.46062 13.5225 7.44187 13.4737C7.30125 13.1344 7.59187 12.9525 7.90875 12.9525H10.7494C11.1281 12.9525 11.2519 13.1831 11.3381 13.3875C11.4394 13.6256 11.8106 14.5725 12.42 15.6375C13.4081 17.3737 14.0138 18.0787 14.4994 18.0787C14.5904 18.0777 14.6799 18.0545 14.76 18.0112C15.3937 17.6587 15.2756 15.3994 15.2475 14.9306C15.2475 14.8425 15.2456 13.92 14.9212 13.4775C14.6887 13.1569 14.2931 13.035 14.0531 12.99C14.1503 12.856 14.2782 12.7473 14.4262 12.6731C14.8612 12.4556 15.645 12.4237 16.4231 12.4237H16.8563C17.7 12.435 17.9175 12.4894 18.2231 12.5662C18.8419 12.7144 18.855 13.1137 18.8006 14.4806C18.7838 14.8687 18.7669 15.3075 18.7669 15.825C18.7669 15.9375 18.7612 16.0575 18.7612 16.185C18.7425 16.8806 18.72 17.67 19.2112 17.9944C19.2753 18.0346 19.3494 18.056 19.425 18.0562C19.5956 18.0562 20.1094 18.0562 21.5006 15.6694C21.9297 14.9011 22.3025 14.1028 22.6162 13.2806C22.6444 13.2319 22.7269 13.0819 22.8244 13.0237C22.8963 12.9871 22.9761 12.9684 23.0569 12.9694H26.3962C26.76 12.9694 27.0094 13.0237 27.0562 13.1644C27.1387 13.3875 27.0412 14.0681 25.5169 16.1325L24.8362 17.0306C23.4544 18.8419 23.4544 18.9338 24.9225 20.3081Z" fill="#FF7020"/>
</g>
<defs>
<clipPath id="clip0_57_2464">
<rect width="36" height="36" fill="white"/>
</clipPath>
</defs>
</svg>
